<svg xmlns="http://www.w3.org/2000/svg" width="65" height="65" viewBox="0 0 65 65">
  <g id="andoirdlogo" transform="translate(-783 324)">
    <g id="Group_2338" data-name="Group 2338" transform="translate(582 -696)">
      <rect id="Rectangle_222" data-name="Rectangle 222" width="65" height="65" transform="translate(201 372)" fill="rgba(164,198,57,0)"/>
    </g>
    <g id="Group_2340" data-name="Group 2340" transform="translate(752.167 -315.312)">
      <g id="Group_2339" data-name="Group 2339" transform="translate(42.544)">
        <path id="Path_4194" data-name="Path 4194" d="M45.637,179.141a2.984,2.984,0,0,0-2.192.9,2.949,2.949,0,0,0-.9,2.162v12.915a3.076,3.076,0,0,0,3.093,3.094,2.938,2.938,0,0,0,2.178-.9,3.011,3.011,0,0,0,.886-2.193V182.2a3.076,3.076,0,0,0-3.064-3.063Z" transform="translate(-42.544 -162.952)" fill="#fff"/>
        <path id="Path_4195" data-name="Path 4195" d="M143.375,4.6,145.507.661a.4.4,0,0,0-.15-.6.416.416,0,0,0-.6.18L142.6,4.206a15.065,15.065,0,0,0-12.075,0L128.357.24a.417.417,0,0,0-.6-.18.4.4,0,0,0-.15.6L129.74,4.6a13.169,13.169,0,0,0-5.166,4.611,11.645,11.645,0,0,0-1.922,6.473h27.782a11.649,11.649,0,0,0-1.922-6.473A13.225,13.225,0,0,0,143.375,4.6Zm-12.329,5.722a1.126,1.126,0,0,1-.826.346,1.075,1.075,0,0,1-.811-.346,1.2,1.2,0,0,1,0-1.651,1.079,1.079,0,0,1,.811-.345,1.167,1.167,0,0,1,.826,2Zm12.66,0a1.077,1.077,0,0,1-.811.346,1.171,1.171,0,0,1,0-2.343,1.079,1.079,0,0,1,.811.345,1.2,1.2,0,0,1,0,1.651Z" transform="translate(-115.412)" fill="#fff"/>
        <path id="Path_4196" data-name="Path 4196" d="M123.971,205.454a3.28,3.28,0,0,0,3.3,3.3H129.5l.03,6.819a2.985,2.985,0,0,0,.9,2.193,2.95,2.95,0,0,0,2.162.9,3.076,3.076,0,0,0,3.093-3.094v-6.818h4.145v6.818a3.094,3.094,0,0,0,6.187,0v-6.818h2.253a3.28,3.28,0,0,0,3.274-3.3v-20H123.971Z" transform="translate(-116.612 -168.691)" fill="#fff"/>
        <path id="Path_4197" data-name="Path 4197" d="M445.439,179.141a2.976,2.976,0,0,0-2.163.886,2.937,2.937,0,0,0-.9,2.177v12.915a2.983,2.983,0,0,0,.9,2.193,2.95,2.95,0,0,0,2.163.9,3.076,3.076,0,0,0,3.093-3.094V182.2a2.937,2.937,0,0,0-.9-2.177,3.013,3.013,0,0,0-2.193-.882Z" transform="translate(-406.243 -162.952)" fill="#fff"/>
      </g>
    </g>
  </g>
</svg>
