<svg xmlns="http://www.w3.org/2000/svg" xmlns:xlink="http://www.w3.org/1999/xlink" width="300" height="300" viewBox="0 0 300 300">
  <defs>
    <clipPath id="clip-android">
      <rect width="300" height="300"/>
    </clipPath>
  </defs>
  <g id="android" clip-path="url(#clip-android)">
    <g id="andoirdlogo" transform="translate(-748.783 341.982)">
      <g id="Group_2340" data-name="Group 2340" transform="translate(794.712 -315.315)">
        <g id="Group_2339" data-name="Group 2339" transform="translate(0 0)">
          <path id="Path_4194" data-name="Path 4194" d="M57.89,179.157a14.808,14.808,0,0,0-10.878,4.466,14.634,14.634,0,0,0-4.466,10.729v64.09A15.264,15.264,0,0,0,57.895,273.8,14.579,14.579,0,0,0,68.7,269.329a14.942,14.942,0,0,0,4.4-10.883V194.337a15.264,15.264,0,0,0-15.2-15.2Z" transform="translate(-42.545 -98.804)" fill="#8abf46"/>
          <path id="Path_4195" data-name="Path 4195" d="M225.489,22.84l10.58-19.547a1.985,1.985,0,0,0-.744-2.977,2.064,2.064,0,0,0-2.978.893l-10.7,19.676a74.759,74.759,0,0,0-59.921,0L150.963,1.2a2.069,2.069,0,0,0-2.977-.893,1.985,1.985,0,0,0-.744,2.977L157.826,22.84a65.351,65.351,0,0,0-25.636,22.882,57.787,57.787,0,0,0-9.538,32.122H260.519a57.808,57.808,0,0,0-9.538-32.122A65.628,65.628,0,0,0,225.489,22.84ZM164.307,51.235a5.588,5.588,0,0,1-4.1,1.717,5.335,5.335,0,0,1-4.025-1.717,5.955,5.955,0,0,1,0-8.193,5.354,5.354,0,0,1,4.025-1.712,5.791,5.791,0,0,1,4.1,9.925Zm62.824,0a5.345,5.345,0,0,1-4.025,1.717,5.813,5.813,0,0,1,0-11.627,5.355,5.355,0,0,1,4.025,1.712,5.955,5.955,0,0,1,0,8.193Z" transform="translate(-86.728 0.003)" fill="#8abf46"/>
          <path id="Path_4196" data-name="Path 4196" d="M123.971,284.7a16.277,16.277,0,0,0,16.376,16.376h11.061l.149,33.839a14.813,14.813,0,0,0,4.466,10.882,14.639,14.639,0,0,0,10.729,4.466A15.264,15.264,0,0,0,182.1,334.912V301.078H202.67v33.834a15.352,15.352,0,1,0,30.7,0l0-33.834h11.18A16.277,16.277,0,0,0,260.8,284.7V185.454H123.971Z" transform="translate(-87.456 -102.253)" fill="#8abf46"/>
          <path id="Path_4197" data-name="Path 4197" d="M457.579,179.144a14.768,14.768,0,0,0-10.734,4.4,14.575,14.575,0,0,0-4.466,10.8v64.09a14.8,14.8,0,0,0,4.466,10.882,14.64,14.64,0,0,0,10.734,4.466,15.264,15.264,0,0,0,15.349-15.354v-64.1a14.575,14.575,0,0,0-4.466-10.8,14.953,14.953,0,0,0-10.883-4.377Z" transform="translate(-263.075 -98.791)" fill="#8abf46"/>
        </g>
      </g>
    </g>
  </g>
</svg>
