<svg xmlns="http://www.w3.org/2000/svg" width="65" height="65" viewBox="0 0 65 65">
  <g id="dotNet" transform="translate(-933 324)">
    <g id="net" transform="translate(-2274 -5371)">
      <rect id="Rectangle_41" data-name="Rectangle 41" width="65" height="65" transform="translate(3207 5047)" fill="rgba(104,33,122,0)"/>
      <g id="Group_90" data-name="Group 90" transform="translate(3214.289 5065.858)">
        <g id="dot-net-core-7" transform="translate(0 10.616)">
          <path id="Path_63" data-name="Path 63" d="M2.428,16.236a1.416,1.416,0,0,0-.46-.323,1.35,1.35,0,0,0-.549-.113,1.346,1.346,0,0,0-.549.109,1.416,1.416,0,0,0-.46.323A1.369,1.369,0,0,0,.1,16.7a1.523,1.523,0,0,0-.1.549,1.343,1.343,0,0,0,.1.549,1.442,1.442,0,0,0,.311.464,1.347,1.347,0,0,0,1.008.424,1.394,1.394,0,0,0,1.008-.424,1.336,1.336,0,0,0,.315-.46,1.436,1.436,0,0,0,0-1.1,1.381,1.381,0,0,0-.319-.464Zm16.881-3.275a19.647,19.647,0,0,0,.129,2.711H19.39c-.113-.222-.363-.633-.746-1.234L9.447,0H6.655V18.43H8.8V5.107a18.945,18.945,0,0,0-.1-2.529h.081a6.2,6.2,0,0,0,.585,1.154l9.447,14.7h2.642V0H19.309Zm16.7,3.445H28.422V10.02h6.636V8.076H28.422V1.952h7.12V0H26.223V18.43h9.77ZM37.647,0V1.952h5.284V18.43h2.146V1.952h5.345V0Z" transform="translate(0.001)" fill="#fff"/>
        </g>
        <g id="microsoft-azure" transform="translate(6.629)">
          <path id="Path_70" data-name="Path 70" d="M-129.645,356.708h-.959v-5.464c0-.417.042-.959.083-1.585h-.042a3.557,3.557,0,0,1-.25.792l-2.753,6.215h-.459l-2.753-6.131a4.1,4.1,0,0,1-.25-.834h-.042a15.307,15.307,0,0,1,.042,1.585v5.422h-.918v-8.091h1.251l2.5,5.672a8.458,8.458,0,0,1,.375.959h.042a9.047,9.047,0,0,0,.375-1l2.544-5.631h1.21Zm2.753-7.883a.484.484,0,0,1-.167.417.535.535,0,0,1-.417.167.483.483,0,0,1-.417-.167.57.57,0,0,1-.167-.459.536.536,0,0,1,.167-.417.535.535,0,0,1,.417-.167.483.483,0,0,1,.417.167.7.7,0,0,1,.167.459Zm-.125,7.883h-.918v-5.8h.918Zm5.464-.25a2.812,2.812,0,0,1-1.585.417,2.668,2.668,0,0,1-1.418-.375,2.68,2.68,0,0,1-1-1.043,3.053,3.053,0,0,1-.334-1.5,3.225,3.225,0,0,1,.834-2.294,2.89,2.89,0,0,1,2.211-.876,2.74,2.74,0,0,1,1.335.292v.959a2.369,2.369,0,0,0-1.376-.459,1.893,1.893,0,0,0-1.46.626,2.436,2.436,0,0,0-.542,1.668,2.154,2.154,0,0,0,.542,1.585,1.917,1.917,0,0,0,1.418.584,2.265,2.265,0,0,0,1.418-.5v.918h-.042Zm4.087-4.588a1.193,1.193,0,0,0-.709-.167,1.172,1.172,0,0,0-1,.584,2.669,2.669,0,0,0-.375,1.5v2.961h-.918V350.91h.918v1.21h.042a2.2,2.2,0,0,1,.584-.959,1.254,1.254,0,0,1,.918-.334,1.635,1.635,0,0,1,.542.083Zm5.8,1.918a3,3,0,0,1-.792,2.211,2.8,2.8,0,0,1-2.085.834A2.639,2.639,0,0,1-116.59,356a3.049,3.049,0,0,1-.751-2.169,3.034,3.034,0,0,1,.792-2.252,2.922,2.922,0,0,1,2.169-.834,2.464,2.464,0,0,1,2,.793,3.316,3.316,0,0,1,.711,2.25Zm-.918.042a2.491,2.491,0,0,0-.5-1.668,1.761,1.761,0,0,0-1.376-.584,1.852,1.852,0,0,0-1.418.584,2.567,2.567,0,0,0-.5,1.668,2.195,2.195,0,0,0,.542,1.627,1.852,1.852,0,0,0,1.418.584,1.7,1.7,0,0,0,1.376-.584,2.6,2.6,0,0,0,.456-1.627Zm5.214,1.335a1.483,1.483,0,0,1-.584,1.21,2.272,2.272,0,0,1-1.543.459,2.967,2.967,0,0,1-1.418-.334v-1a2.3,2.3,0,0,0,1.5.542c.751,0,1.085-.25,1.085-.792a.794.794,0,0,0-.209-.542,3.41,3.41,0,0,0-.959-.542,2.864,2.864,0,0,1-1.084-.709,1.521,1.521,0,0,1-.334-1,1.605,1.605,0,0,1,.584-1.209,2.139,2.139,0,0,1,1.46-.5,2.518,2.518,0,0,1,1.251.292v.918a2.084,2.084,0,0,0-1.293-.417,1.439,1.439,0,0,0-.751.208.8.8,0,0,0-.292.584.825.825,0,0,0,.209.584,4.48,4.48,0,0,0,.876.5,3.316,3.316,0,0,1,1.168.751,1.7,1.7,0,0,1,.331,1Zm6.3-1.376a3,3,0,0,1-.792,2.211,2.8,2.8,0,0,1-2.085.834A2.639,2.639,0,0,1-106,356a3.049,3.049,0,0,1-.751-2.169,3.034,3.034,0,0,1,.792-2.252,2.922,2.922,0,0,1,2.169-.834,2.464,2.464,0,0,1,2,.793,3.545,3.545,0,0,1,.715,2.25Zm-.959.042a2.491,2.491,0,0,0-.5-1.668,1.761,1.761,0,0,0-1.376-.584,1.852,1.852,0,0,0-1.418.584,2.568,2.568,0,0,0-.5,1.668,2.2,2.2,0,0,0,.542,1.627,1.852,1.852,0,0,0,1.418.584,1.7,1.7,0,0,0,1.376-.584,2.367,2.367,0,0,0,.453-1.628Zm4.755-4.88a1.38,1.38,0,0,0-.626-.167c-.667,0-.959.417-.959,1.21v.918h1.377v.793h-1.377v5h-.959v-5h-1v-.793h1v-.918a2.031,2.031,0,0,1,.5-1.418,1.891,1.891,0,0,1,1.376-.584,2.613,2.613,0,0,1,.667.083Z" transform="translate(137.945 -347.991)" fill="#fff"/>
          <path id="Path_71" data-name="Path 71" d="M317.022,368.971a1.727,1.727,0,0,1-.876.167c-1,0-1.5-.584-1.5-1.71v-3.42h-1v-.793h1V361.8l.918-.292v1.71h1.46v.793h-1.46v3.253a1.434,1.434,0,0,0,.209.834.767.767,0,0,0,.667.25.882.882,0,0,0,.584-.167Z" transform="translate(-273.229 -360.296)" fill="#fff"/>
        </g>
      </g>
    </g>
  </g>
</svg>
