<svg xmlns="http://www.w3.org/2000/svg" xmlns:xlink="http://www.w3.org/1999/xlink" width="300" height="300" viewBox="0 0 300 300">
  <defs>
    <clipPath id="clip-ios">
      <rect width="300" height="300"/>
    </clipPath>
  </defs>
  <g id="ios" clip-path="url(#clip-ios)">
    <path id="path4" d="M209.86,198.316a138.356,138.356,0,0,1-13.682,24.6q-10.791,15.386-17.624,21.3Q168,253.923,155.9,254.19c-5.8,0-12.786-1.649-20.923-5q-12.245-5-22.525-4.979a62.072,62.072,0,0,0-23.163,4.979q-12.4,5.019-20.015,5.262-11.614.495-23.163-10.242-7.375-6.432-18.433-22.054A152.529,152.529,0,0,1,8.185,183.441Q.007,159.62,0,137.294,0,111.712,11.066,93.2A64.918,64.918,0,0,1,34.244,69.76a62.349,62.349,0,0,1,31.334-8.842c6.15,0,14.214,1.9,24.236,5.641,9.993,3.751,16.41,5.653,19.224,5.653,2.1,0,9.232-2.224,21.316-6.659q17.141-6.169,28.974-5.144Q191.442,63,207.519,85.782q-28.722,17.4-28.432,48.7.259,24.356,17.64,40.478a57.969,57.969,0,0,0,17.624,11.561q-2.121,6.15-4.493,11.8ZM160.756,5.092q0,19.09-13.917,35.609c-11.184,13.075-24.712,20.631-39.382,19.439a39.621,39.621,0,0,1-.3-4.822c0-12.218,5.319-25.293,14.764-35.984a56.844,56.844,0,0,1,17.986-13.5Q150.8.523,160.489,0a46.25,46.25,0,0,1,.267,5.091Z" transform="translate(42.824 22.933)"/>
  </g>
</svg>
