<svg xmlns="http://www.w3.org/2000/svg" width="39.041" height="39.266" viewBox="0 0 39.041 39.266"><path d="M122.473,633.073a2.851,2.851,0,0,1,2.064.829,2.692,2.692,0,0,1,.853,2v33.656a2.615,2.615,0,0,1-.853,1.974,2.84,2.84,0,0,1-2.019.809h-33.3a2.831,2.831,0,0,1-2.019-.809,2.612,2.612,0,0,1-.853-1.974V635.9a2.688,2.688,0,0,1,.853-2,2.85,2.85,0,0,1,2.064-.829h33.207ZM97.657,644.941a3.142,3.142,0,0,0,0-4.4,3.262,3.262,0,0,0-2.378-.874,3.343,3.343,0,0,0-2.4.874,2.909,2.909,0,0,0-.92,2.2,2.94,2.94,0,0,0,.9,2.2,3.2,3.2,0,0,0,2.333.875h.045A3.314,3.314,0,0,0,97.657,644.941Zm.538,3.3H92.317v17.726H98.2Zm21.226,7.539a8.6,8.6,0,0,0-1.93-6.012,6.97,6.97,0,0,0-8.392-.944,6.952,6.952,0,0,0-1.75,1.931v-2.513h-5.879q.044,1.031,0,9.469v8.256h5.879v-9.917a4.407,4.407,0,0,1,.18-1.436,3.574,3.574,0,0,1,1.077-1.48,2.98,2.98,0,0,1,1.974-.674,2.587,2.587,0,0,1,2.289,1.122,5.233,5.233,0,0,1,.673,2.873v9.512h5.879Z" transform="translate(-86.349 -633.073)" fill="#030640"/></svg>