<svg xmlns="http://www.w3.org/2000/svg" width="342.718" height="43.646" viewBox="0 0 342.718 43.646">
  <g id="logo_txt" transform="translate(-661.65 -26.05)">
    <path id="Path_3900" data-name="Path 3900" d="M5.375,0h2.9V-13.9H13v-2.45H.65v2.45H5.375Zm10.1,0H18.35V-12.275H15.475Zm1.45-14.425A1.646,1.646,0,0,0,18.7-16.05a1.651,1.651,0,0,0-1.775-1.65,1.651,1.651,0,0,0-1.775,1.65A1.646,1.646,0,0,0,16.925-14.425ZM24.825.3A3.925,3.925,0,0,0,26.35.05L25.975-2.1a1.722,1.722,0,0,1-.45.05c-.3,0-.625-.25-.625-.95V-17.65H22.025v14.5C22.025-1.025,22.775.3,24.825.3ZM31.6.3A3.925,3.925,0,0,0,33.125.05L32.75-2.1a1.722,1.722,0,0,1-.45.05c-.3,0-.625-.25-.625-.95V-17.65H28.8v14.5C28.8-1.025,29.55.3,31.6.3ZM35.575,0H38.45V-12.275H35.575Zm1.45-14.425A1.646,1.646,0,0,0,38.8-16.05a1.651,1.651,0,0,0-1.775-1.65,1.651,1.651,0,0,0-1.775,1.65A1.646,1.646,0,0,0,37.025-14.425ZM46.425.3A5.115,5.115,0,0,0,49.9-1.325H50L50.2,0h2.375V-17.65H49.7v4.45l.1,1.975a4.532,4.532,0,0,0-3.225-1.35c-2.675,0-5.2,2.45-5.2,6.45C41.375-2.075,43.35.3,46.425.3Zm.7-2.375C45.35-2.075,44.35-3.5,44.35-6.15c0-2.575,1.275-4.05,2.85-4.05a3.66,3.66,0,0,1,2.5,1.025V-3.45A3.314,3.314,0,0,1,47.125-2.075ZM66.25.3c3.675,0,5.875-2.2,5.875-4.85,0-2.375-1.375-3.6-3.3-4.425L66.6-9.9c-1.35-.55-2.6-1.025-2.6-2.3,0-1.2,1.025-1.925,2.575-1.925a5.328,5.328,0,0,1,3.55,1.4l1.475-1.85a7.217,7.217,0,0,0-5.025-2.075c-3.2,0-5.5,2-5.5,4.6,0,2.4,1.7,3.675,3.3,4.35l2.25.975c1.475.625,2.525,1.05,2.525,2.4,0,1.275-1,2.1-2.85,2.1a6.5,6.5,0,0,1-4.25-1.85L60.35-2.1A8.469,8.469,0,0,0,66.25.3ZM79.875.3c3.075,0,5.85-2.35,5.85-6.425,0-4.1-2.775-6.45-5.85-6.45-3.05,0-5.825,2.35-5.825,6.45C74.05-2.05,76.825.3,79.875.3Zm0-2.35C78.075-2.05,77-3.675,77-6.125c0-2.475,1.075-4.1,2.875-4.1s2.9,1.625,2.9,4.1C82.775-3.675,81.675-2.05,79.875-2.05ZM88.975,0H91.85V-10h4.075v5.85C95.925-1.5,96.975.3,99.8.3a7.872,7.872,0,0,0,2.525-.45l-.5-2.125A3.519,3.519,0,0,1,100.55-2c-1.175,0-1.75-.7-1.75-2.15V-10h3.15v-2.275H98.8v-3.35H96.425l-.35,3.35H91.85V-13.6c0-1.425.55-2.075,1.55-2.075a3.39,3.39,0,0,1,1.35.3l.55-2.15a6.213,6.213,0,0,0-2.25-.425c-2.9,0-4.075,1.85-4.075,4.4v1.275l-1.65.125V-10h1.65ZM106.55,0h3.3l1.4-5.7c.275-1.15.5-2.3.725-3.6h.1c.275,1.3.475,2.425.75,3.575L114.25,0h3.425L120.8-12.275h-2.7L116.625-5.9c-.225,1.175-.425,2.325-.65,3.525h-.1c-.275-1.2-.525-2.35-.825-3.525l-1.625-6.375H110.8L109.2-5.9c-.3,1.15-.55,2.325-.775,3.525h-.1c-.225-1.2-.4-2.35-.65-3.525L106.2-12.275h-2.9Zm19.4.3a5.976,5.976,0,0,0,3.8-1.65h.1l.2,1.35h2.375V-7.275c0-3.425-1.525-5.3-4.575-5.3a9.6,9.6,0,0,0-5.05,1.6l1.05,1.925a6.994,6.994,0,0,1,3.45-1.2c1.675,0,2.2,1.1,2.25,2.4-5.05.55-7.225,1.925-7.225,4.55A3.431,3.431,0,0,0,125.95.3Zm.925-2.25c-1.025,0-1.775-.475-1.775-1.575,0-1.225,1.1-2.1,4.45-2.525V-3.3A3.9,3.9,0,0,1,126.875-1.95Zm9,1.95h2.875V-7.5c.75-1.85,1.925-2.525,2.9-2.525a4.012,4.012,0,0,1,1.275.2l.5-2.5a3.119,3.119,0,0,0-1.4-.25A4.17,4.17,0,0,0,138.55-10.1h-.1l-.2-2.175h-2.375ZM150.2.3a7.745,7.745,0,0,0,4.2-1.325l-.975-1.8a5.128,5.128,0,0,1-2.85.9A3.513,3.513,0,0,1,146.95-5.35h7.8a6.7,6.7,0,0,0,.125-1.4c0-3.425-1.75-5.825-5.075-5.825-2.875,0-5.65,2.45-5.65,6.45C144.15-2.075,146.8.3,150.2.3Zm-3.275-7.6c.25-1.975,1.5-3.05,2.95-3.05,1.675,0,2.5,1.15,2.5,3.05ZM167.65.3c3.675,0,5.875-2.2,5.875-4.85,0-2.375-1.375-3.6-3.3-4.425L168-9.9c-1.35-.55-2.6-1.025-2.6-2.3,0-1.2,1.025-1.925,2.575-1.925a5.328,5.328,0,0,1,3.55,1.4L173-14.575a7.217,7.217,0,0,0-5.025-2.075c-3.2,0-5.5,2-5.5,4.6,0,2.4,1.7,3.675,3.3,4.35l2.25.975c1.475.625,2.525,1.05,2.525,2.4,0,1.275-1,2.1-2.85,2.1a6.5,6.5,0,0,1-4.25-1.85L161.75-2.1A8.469,8.469,0,0,0,167.65.3Zm13.625,0c3.075,0,5.85-2.35,5.85-6.425,0-4.1-2.775-6.45-5.85-6.45-3.05,0-5.825,2.35-5.825,6.45C175.45-2.05,178.225.3,181.275.3Zm0-2.35c-1.8,0-2.875-1.625-2.875-4.075,0-2.475,1.075-4.1,2.875-4.1s2.9,1.625,2.9,4.1C184.175-3.675,183.075-2.05,181.275-2.05ZM192.775.3A3.925,3.925,0,0,0,194.3.05l-.375-2.15a1.722,1.722,0,0,1-.45.05c-.3,0-.625-.25-.625-.95V-17.65h-2.875v14.5C189.975-1.025,190.725.3,192.775.3ZM200.4.3a5,5,0,0,0,3.95-2.1h.075L204.65,0H207V-12.275h-2.875v8.4c-.925,1.2-1.65,1.7-2.725,1.7-1.325,0-1.9-.75-1.9-2.775v-7.325h-2.875v7.7C196.625-1.475,197.775.3,200.4.3Zm14.575,0a7.84,7.84,0,0,0,2.5-.45l-.5-2.125A3.519,3.519,0,0,1,215.7-2c-1.175,0-1.725-.7-1.725-2.15V-10H217.1v-2.275h-3.125v-3.35h-2.4l-.35,3.35-1.9.125V-10h1.75v5.85C211.075-1.5,212.125.3,214.975.3Zm4.7-.3h2.875V-12.275h-2.875Zm1.45-14.425A1.646,1.646,0,0,0,222.9-16.05a1.651,1.651,0,0,0-1.775-1.65,1.651,1.651,0,0,0-1.775,1.65A1.646,1.646,0,0,0,221.125-14.425ZM231.25.3c3.075,0,5.85-2.35,5.85-6.425,0-4.1-2.775-6.45-5.85-6.45-3.05,0-5.825,2.35-5.825,6.45C225.425-2.05,228.2.3,231.25.3Zm0-2.35c-1.8,0-2.875-1.625-2.875-4.075,0-2.475,1.075-4.1,2.875-4.1s2.9,1.625,2.9,4.1C234.15-3.675,233.05-2.05,231.25-2.05ZM239.95,0h2.875V-8.575c1.025-1,1.725-1.525,2.8-1.525,1.35,0,1.925.75,1.925,2.775V0h2.875V-7.7c0-3.1-1.15-4.875-3.775-4.875a5.7,5.7,0,0,0-4.025,1.95h-.1l-.2-1.65H239.95Zm17.425.3c3.1,0,4.775-1.7,4.775-3.8,0-2.3-1.85-3.1-3.525-3.725-1.325-.475-2.55-.85-2.55-1.825,0-.775.575-1.35,1.8-1.35a4.57,4.57,0,0,1,2.7,1.05L261.9-11.1a6.627,6.627,0,0,0-4.075-1.475c-2.75,0-4.475,1.525-4.475,3.675,0,2.05,1.825,2.975,3.45,3.575,1.3.5,2.625.95,2.625,1.975,0,.85-.625,1.475-1.95,1.475a5.462,5.462,0,0,1-3.4-1.375l-1.35,1.85A7.774,7.774,0,0,0,257.375.3Zm12.6-.3h2.9V-6h2.35c3.525,0,6.225-1.675,6.225-5.3,0-3.8-2.7-5.05-6.325-5.05h-5.15Zm2.9-8.325v-5.7H274.9c2.425,0,3.7.675,3.7,2.725,0,2-1.175,2.975-3.6,2.975ZM287.025,0h3.325l4.175-12.275H291.75L289.8-5.9c-.35,1.2-.7,2.45-1.05,3.7h-.1c-.325-1.25-.7-2.5-1.025-3.7l-1.95-6.375H282.75Zm13.95.3a7.84,7.84,0,0,0,2.5-.45l-.5-2.125A3.52,3.52,0,0,1,301.7-2c-1.175,0-1.725-.7-1.725-2.15V-10H303.1v-2.275h-3.125v-3.35h-2.4l-.35,3.35-1.9.125V-10h1.75v5.85C297.075-1.5,298.125.3,300.975.3Zm9.95-.3h9.7V-2.45h-6.8v-13.9h-2.9ZM326.95.3a7.84,7.84,0,0,0,2.5-.45l-.5-2.125A3.52,3.52,0,0,1,327.675-2c-1.175,0-1.725-.7-1.725-2.15V-10h3.125v-2.275H325.95v-3.35h-2.4l-.35,3.35-1.9.125V-10h1.75v5.85C323.05-1.5,324.1.3,326.95.3Zm8.6,0a5.115,5.115,0,0,0,3.475-1.625h.1l.2,1.325H341.7V-17.65h-2.875v4.45l.1,1.975a4.532,4.532,0,0,0-3.225-1.35c-2.675,0-5.2,2.45-5.2,6.45C330.5-2.075,332.475.3,335.55.3Zm.7-2.375c-1.775,0-2.775-1.425-2.775-4.075,0-2.575,1.275-4.05,2.85-4.05a3.66,3.66,0,0,1,2.5,1.025V-3.45A3.314,3.314,0,0,1,336.25-2.075Z" transform="translate(661 44)" fill="#030640"/>
    <path id="Path_3901" data-name="Path 3901" d="M3.824,0H4.56V-9.9H7.92v-.64H.464v.64h3.36ZM16.176.192c1.856,0,3.456-1.472,3.456-4.016,0-2.576-1.6-4.048-3.456-4.048-1.84,0-3.44,1.472-3.44,4.048C12.736-1.28,14.336.192,16.176.192Zm0-.624c-1.552,0-2.7-1.376-2.7-3.392,0-2.032,1.152-3.424,2.7-3.424S18.9-5.856,18.9-3.824C18.9-1.808,17.728-.432,16.176-.432ZM28.928,3.7c2.208,0,3.632-1.264,3.632-2.592,0-1.216-.8-1.76-2.528-1.76H28.384c-1.152,0-1.472-.448-1.472-1.008a1.382,1.382,0,0,1,.624-1.1,2.664,2.664,0,0,0,1.28.32,2.625,2.625,0,0,0,2.672-2.7,2.555,2.555,0,0,0-.848-1.936h1.792V-7.68H29.824a2.748,2.748,0,0,0-1.008-.192,2.642,2.642,0,0,0-2.7,2.7,2.868,2.868,0,0,0,.96,2.112v.064a1.806,1.806,0,0,0-.832,1.408,1.369,1.369,0,0,0,.672,1.232v.064a2.423,2.423,0,0,0-1.136,1.856C25.776,2.864,26.992,3.7,28.928,3.7Zm-.112-6.7a2.041,2.041,0,0,1-2-2.16,2,2,0,0,1,2-2.128A1.992,1.992,0,0,1,30.8-5.168,2.039,2.039,0,0,1,28.816-3.008Zm.192,6.128c-1.632,0-2.56-.656-2.56-1.616A2.007,2.007,0,0,1,27.456-.112a4.756,4.756,0,0,0,.96.128h1.648c1.152,0,1.776.32,1.776,1.168C31.84,2.144,30.736,3.12,29.008,3.12ZM41.424.192A4.282,4.282,0,0,0,43.84-.56L43.552-1.1a3.4,3.4,0,0,1-2.064.688c-1.728,0-2.864-1.392-2.9-3.328h5.536a3.478,3.478,0,0,0,.032-.576c0-2.256-1.12-3.552-2.944-3.552-1.712,0-3.344,1.536-3.344,4.048S39.456.192,41.424.192ZM38.592-4.32c.16-1.84,1.328-2.944,2.64-2.944,1.376,0,2.256.976,2.256,2.944ZM52.656.192A4.288,4.288,0,0,0,53.9-.1l-.192-.576a2.572,2.572,0,0,1-.96.24c-1.056,0-1.3-.656-1.3-1.632V-7.072H53.68V-7.68H51.456V-9.9h-.608l-.1,2.224-1.216.064v.544h1.2v4.944C50.736-.752,51.168.192,52.656.192ZM60.032,0h.7V-5.792c.944-.96,1.6-1.44,2.512-1.44,1.248,0,1.76.768,1.76,2.4V0h.7V-4.928c0-1.984-.736-2.944-2.32-2.944A3.773,3.773,0,0,0,60.736-6.48V-11.5h-.7Zm15.84.192A4.282,4.282,0,0,0,78.288-.56L78-1.1a3.4,3.4,0,0,1-2.064.688c-1.728,0-2.864-1.392-2.9-3.328h5.536a3.477,3.477,0,0,0,.032-.576c0-2.256-1.12-3.552-2.944-3.552-1.712,0-3.344,1.536-3.344,4.048S73.9.192,75.872.192ZM73.04-4.32c.16-1.84,1.328-2.944,2.64-2.944,1.376,0,2.256.976,2.256,2.944ZM85.168,0h.7V-5.232c.592-1.44,1.408-1.968,2.1-1.968a1.674,1.674,0,0,1,.7.128l.16-.64a1.581,1.581,0,0,0-.768-.16,2.635,2.635,0,0,0-2.176,1.616H85.84L85.776-7.68h-.608Zm18.416,0h.848l1.328-4.736c.24-.736.432-1.472.608-2.224h.064c.224.752.368,1.456.592,2.192L108.368,0h.928L111.5-7.68h-.72L109.424-2.7c-.176.7-.368,1.36-.544,2.048h-.064c-.192-.688-.384-1.344-.576-2.048L106.848-7.68H106L104.608-2.7c-.192.7-.384,1.36-.56,2.048h-.064c-.16-.688-.336-1.344-.528-2.048L102.08-7.68h-.768Zm17.168.192a4.282,4.282,0,0,0,2.416-.752L122.88-1.1a3.4,3.4,0,0,1-2.064.688c-1.728,0-2.864-1.392-2.9-3.328h5.536a3.477,3.477,0,0,0,.032-.576c0-2.256-1.12-3.552-2.944-3.552-1.712,0-3.344,1.536-3.344,4.048S118.784.192,120.752.192ZM117.92-4.32c.16-1.84,1.328-2.944,2.64-2.944,1.376,0,2.256.976,2.256,2.944ZM140.272.192a3.6,3.6,0,0,0,2.5-1.184h.048L142.88,0h.608V-11.5h-.7v3.168l.032,1.408a3.548,3.548,0,0,0-2.32-.944c-1.824,0-3.408,1.568-3.408,4.048C137.088-1.232,138.336.192,140.272.192Zm.1-.624c-1.632,0-2.528-1.36-2.528-3.392,0-1.936,1.168-3.424,2.7-3.424a3.248,3.248,0,0,1,2.24.992V-1.7A3.468,3.468,0,0,1,140.368-.432ZM150.912,0h.7V-7.68h-.7Zm.368-9.536a.618.618,0,0,0,.64-.624.613.613,0,0,0-.64-.64.613.613,0,0,0-.64.64A.618.618,0,0,0,151.28-9.536ZM161.568,3.7c2.208,0,3.632-1.264,3.632-2.592,0-1.216-.8-1.76-2.528-1.76h-1.648c-1.152,0-1.472-.448-1.472-1.008a1.382,1.382,0,0,1,.624-1.1,2.664,2.664,0,0,0,1.28.32,2.625,2.625,0,0,0,2.672-2.7,2.555,2.555,0,0,0-.848-1.936h1.792V-7.68h-2.608a2.748,2.748,0,0,0-1.008-.192,2.642,2.642,0,0,0-2.7,2.7,2.868,2.868,0,0,0,.96,2.112v.064a1.806,1.806,0,0,0-.832,1.408,1.369,1.369,0,0,0,.672,1.232v.064a2.423,2.423,0,0,0-1.136,1.856C158.416,2.864,159.632,3.7,161.568,3.7Zm-.112-6.7a2.041,2.041,0,0,1-2-2.16,2,2,0,0,1,2-2.128,1.992,1.992,0,0,1,1.984,2.128A2.039,2.039,0,0,1,161.456-3.008Zm.192,6.128c-1.632,0-2.56-.656-2.56-1.616A2.008,2.008,0,0,1,160.1-.112a4.756,4.756,0,0,0,.96.128H162.7c1.152,0,1.776.32,1.776,1.168C164.48,2.144,163.376,3.12,161.648,3.12ZM171.328,0h.7V-7.68h-.7Zm.368-9.536a.618.618,0,0,0,.64-.624.613.613,0,0,0-.64-.64.613.613,0,0,0-.64.64A.618.618,0,0,0,171.7-9.536ZM181.568.192A4.288,4.288,0,0,0,182.816-.1l-.192-.576a2.572,2.572,0,0,1-.96.24c-1.056,0-1.3-.656-1.3-1.632V-7.072h2.224V-7.68h-2.224V-9.9h-.608l-.1,2.224-1.216.064v.544h1.2v4.944C179.648-.752,180.08.192,181.568.192Zm8.7,0a4.558,4.558,0,0,0,2.72-1.184h.048L193.1,0h.608V-4.912c0-1.648-.624-2.96-2.432-2.96a5.185,5.185,0,0,0-2.864.992l.32.528a4.327,4.327,0,0,1,2.448-.9c1.52,0,1.84,1.264,1.824,2.432-3.424.384-4.96,1.2-4.96,2.9A2.01,2.01,0,0,0,190.272.192Zm.128-.608a1.453,1.453,0,0,1-1.632-1.536c0-1.216,1.072-1.952,4.24-2.32v2.608A4.058,4.058,0,0,1,190.4-.416Zm11.472.608a1.493,1.493,0,0,0,.512-.08l-.128-.576a1.238,1.238,0,0,1-.288.032c-.192,0-.336-.16-.336-.5V-11.5h-.7v10.48C200.928-.192,201.248.192,201.872.192ZM209.2,0h.7V-7.68h-.7Zm.368-9.536a.618.618,0,0,0,.64-.624.613.613,0,0,0-.64-.64.613.613,0,0,0-.64.64A.618.618,0,0,0,209.568-9.536ZM216.3,0h5.616V-.624h-4.688l4.528-6.688V-7.68H216.8v.608h4.048L216.3-.384ZM231.04.192a4.282,4.282,0,0,0,2.416-.752l-.288-.544a3.4,3.4,0,0,1-2.064.688c-1.728,0-2.864-1.392-2.9-3.328h5.536a3.478,3.478,0,0,0,.032-.576c0-2.256-1.12-3.552-2.944-3.552-1.712,0-3.344,1.536-3.344,4.048S229.072.192,231.04.192ZM228.208-4.32c.16-1.84,1.328-2.944,2.64-2.944,1.376,0,2.256.976,2.256,2.944Zm21.9,4.512A4.288,4.288,0,0,0,251.36-.1l-.192-.576a2.572,2.572,0,0,1-.96.24c-1.056,0-1.3-.656-1.3-1.632V-7.072h2.224V-7.68h-2.224V-9.9H248.3l-.1,2.224-1.216.064v.544h1.2v4.944C248.192-.752,248.624.192,250.112.192ZM257.488,0h.7V-5.792c.944-.96,1.6-1.44,2.512-1.44,1.248,0,1.76.768,1.76,2.4V0h.7V-4.928c0-1.984-.736-2.944-2.32-2.944a3.773,3.773,0,0,0-2.656,1.392V-11.5h-.7Zm15.84.192a4.282,4.282,0,0,0,2.416-.752l-.288-.544a3.4,3.4,0,0,1-2.064.688c-1.728,0-2.864-1.392-2.9-3.328h5.536a3.48,3.48,0,0,0,.032-.576c0-2.256-1.12-3.552-2.944-3.552-1.712,0-3.344,1.536-3.344,4.048S271.36.192,273.328.192ZM270.5-4.32c.16-1.84,1.328-2.944,2.64-2.944,1.376,0,2.256.976,2.256,2.944ZM291.488,0h.848l1.328-4.736c.24-.736.432-1.472.608-2.224h.064c.224.752.368,1.456.592,2.192L296.272,0h.928l2.208-7.68h-.72L297.328-2.7c-.176.7-.368,1.36-.544,2.048h-.064c-.192-.688-.384-1.344-.576-2.048L294.752-7.68H293.9L292.512-2.7c-.192.7-.384,1.36-.56,2.048h-.064c-.16-.688-.336-1.344-.528-2.048L289.984-7.68h-.768Zm17.056.192C310.4.192,312-1.28,312-3.824c0-2.576-1.6-4.048-3.456-4.048-1.84,0-3.44,1.472-3.44,4.048C305.1-1.28,306.7.192,308.544.192Zm0-.624c-1.552,0-2.7-1.376-2.7-3.392,0-2.032,1.152-3.424,2.7-3.424s2.72,1.392,2.72,3.424C311.264-1.808,310.1-.432,308.544-.432ZM318.784,0h.7V-5.232c.592-1.44,1.408-1.968,2.1-1.968a1.674,1.674,0,0,1,.7.128l.16-.64a1.581,1.581,0,0,0-.768-.16A2.635,2.635,0,0,0,319.5-6.256h-.048l-.064-1.424h-.608Zm10.5.192a1.493,1.493,0,0,0,.512-.08l-.128-.576a1.238,1.238,0,0,1-.288.032c-.192,0-.336-.16-.336-.5V-11.5h-.7v10.48C328.336-.192,328.656.192,329.28.192Zm9.872,0a3.6,3.6,0,0,0,2.5-1.184h.048L341.76,0h.608V-11.5h-.7v3.168l.032,1.408a3.548,3.548,0,0,0-2.32-.944c-1.824,0-3.408,1.568-3.408,4.048C335.968-1.232,337.216.192,339.152.192Zm.1-.624c-1.632,0-2.528-1.36-2.528-3.392,0-1.936,1.168-3.424,2.7-3.424a3.248,3.248,0,0,1,2.24.992V-1.7A3.468,3.468,0,0,1,339.248-.432Z" transform="translate(662 66)" fill="#030640" opacity="0.48"/>
  </g>
</svg>
