<svg id="microsoft" xmlns="http://www.w3.org/2000/svg" width="426.534" height="91.061" viewBox="0 0 426.534 91.061">
  <path id="Path_64" data-name="Path 64" d="M595,61.46v-7.5h-9.315V42.3l-.314.1-8.749,2.677-.172.052v8.836h-13.81V49.037a7.818,7.818,0,0,1,1.523-5.216,5.37,5.37,0,0,1,4.268-1.743,9.942,9.942,0,0,1,4.048.921l.344.153v-7.9l-.162-.059a15.78,15.78,0,0,0-5.174-.691,15.166,15.166,0,0,0-7.339,1.763,12.545,12.545,0,0,0-5.036,4.979,14.84,14.84,0,0,0-1.783,7.3v5.412h-6.486v7.5h6.486v31.6h9.311V61.46h13.81V81.542c0,8.271,3.9,12.462,11.6,12.462A19.021,19.021,0,0,0,592,93.566a10.922,10.922,0,0,0,2.88-.913L595,92.58V85.01l-.379.25a6.521,6.521,0,0,1-1.872.817,7.114,7.114,0,0,1-1.839.313,4.988,4.988,0,0,1-3.963-1.444c-.837-.967-1.261-2.658-1.261-5.024V61.46H595ZM526.05,86.391a9.878,9.878,0,0,1-7.922-3.328c-1.889-2.219-2.847-5.382-2.847-9.4,0-4.146.957-7.391,2.847-9.649a9.721,9.721,0,0,1,7.845-3.381,9.573,9.573,0,0,1,7.64,3.233c1.85,2.157,2.789,5.376,2.789,9.571,0,4.246-.883,7.508-2.624,9.69-1.729,2.165-4.33,3.265-7.729,3.265m.414-33.374c-6.448,0-11.569,1.889-15.221,5.616s-5.5,8.884-5.5,15.33c0,6.122,1.806,11.047,5.368,14.634S519.523,94,525.522,94c6.25,0,11.27-1.916,14.919-5.694s5.5-8.882,5.5-15.177c0-6.218-1.735-11.179-5.158-14.743s-8.243-5.373-14.317-5.373m-35.733,0a16.833,16.833,0,0,0-10.786,3.334,10.637,10.637,0,0,0-4.2,8.675,12.139,12.139,0,0,0,.906,4.849,9.741,9.741,0,0,0,2.783,3.635,24.216,24.216,0,0,0,5.66,3.166,42.174,42.174,0,0,1,4.707,2.193,6.544,6.544,0,0,1,2.073,1.7,3.82,3.82,0,0,1,.576,2.217c0,2.627-1.967,3.905-6.015,3.905a16.537,16.537,0,0,1-5.09-.932,19.123,19.123,0,0,1-5.213-2.643l-.387-.277v8.965l.142.066a23.065,23.065,0,0,0,4.936,1.525,26.478,26.478,0,0,0,5.272.609c4.759,0,8.592-1.127,11.389-3.352a10.845,10.845,0,0,0,4.241-8.881,10.214,10.214,0,0,0-2.281-6.719c-1.5-1.808-4.112-3.468-7.751-4.935-2.9-1.164-4.756-2.129-5.522-2.871a4.018,4.018,0,0,1-1.114-3.012,3.356,3.356,0,0,1,1.413-2.786,6.351,6.351,0,0,1,3.963-1.119,16.221,16.221,0,0,1,4.717.725,15.16,15.16,0,0,1,4.12,1.91l.38.26v-8.5l-.146-.063a20.313,20.313,0,0,0-4.183-1.167,25.536,25.536,0,0,0-4.587-.475M451.469,86.391a9.877,9.877,0,0,1-7.922-3.328c-1.89-2.219-2.845-5.381-2.845-9.4,0-4.146.957-7.391,2.847-9.649a9.715,9.715,0,0,1,7.845-3.381,9.573,9.573,0,0,1,7.639,3.233c1.851,2.157,2.789,5.376,2.789,9.571,0,4.246-.883,7.508-2.625,9.69-1.729,2.165-4.328,3.265-7.729,3.265m.415-33.374c-6.449,0-11.571,1.889-15.221,5.616s-5.5,8.884-5.5,15.33c0,6.125,1.807,11.047,5.37,14.634S444.943,94,450.941,94c6.249,0,11.27-1.916,14.92-5.694s5.5-8.882,5.5-15.177c0-6.218-1.735-11.179-5.16-14.743s-8.243-5.373-14.315-5.373m-34.855,7.714V53.959h-9.2v39.1h9.2v-20a13.941,13.941,0,0,1,2.293-8.306,7.032,7.032,0,0,1,5.949-3.142,10.8,10.8,0,0,1,2.766.407,7,7,0,0,1,2.145.867l.387.28V53.892l-.149-.064a9.522,9.522,0,0,0-3.6-.548,9.425,9.425,0,0,0-6.152,2.2,12.459,12.459,0,0,0-3.539,5.245Zm-25.67-7.714a22.7,22.7,0,0,0-11.185,2.689,18.116,18.116,0,0,0-7.377,7.586,24.16,24.16,0,0,0-2.534,11.237A20.731,20.731,0,0,0,372.726,84.6a17.305,17.305,0,0,0,6.883,6.959A20.489,20.489,0,0,0,389.664,94a22.017,22.017,0,0,0,11.1-2.6l.121-.069V82.911l-.387.282a17.29,17.29,0,0,1-4.5,2.343,13.6,13.6,0,0,1-4.408.854,11.326,11.326,0,0,1-8.609-3.356c-2.108-2.229-3.176-5.36-3.176-9.3,0-3.964,1.114-7.175,3.311-9.544a11.265,11.265,0,0,1,8.627-3.56,14.773,14.773,0,0,1,8.756,3.045l.386.28V55.078l-.125-.07a15.178,15.178,0,0,0-4.255-1.44,25.418,25.418,0,0,0-5.142-.552m-27.431.942h-9.2v39.1h9.2Zm-4.5-16.657a5.541,5.541,0,0,0-3.919,1.537,5.07,5.07,0,0,0-1.642,3.835,4.927,4.927,0,0,0,1.625,3.761,5.6,5.6,0,0,0,3.936,1.5,5.673,5.673,0,0,0,3.954-1.5,4.907,4.907,0,0,0,1.645-3.762,5.167,5.167,0,0,0-1.6-3.794,5.487,5.487,0,0,0-4-1.578M336.474,51.074V93.061h9.387V38.5H332.869L316.356,79.026,300.331,38.5H286.81V93.06h8.821V51.07h.3l16.922,41.99h6.657l16.658-41.986h.3Z" transform="translate(-168.47 -20.266)" fill="#fff"/>
  <path id="Path_65" data-name="Path 65" d="M43.269,43.269H0V0H43.269Z" fill="#f1511b"/>
  <path id="Path_66" data-name="Path 66" d="M159.057,43.269H115.788V0h43.269Z" transform="translate(-68.013)" fill="#80cc28"/>
  <path id="Path_67" data-name="Path 67" d="M43.268,159.1H0V115.828H43.268Z" transform="translate(0 -68.036)" fill="#00adef"/>
  <path id="Path_68" data-name="Path 68" d="M159.057,159.1H115.788V115.828h43.269Z" transform="translate(-68.013 -68.036)" fill="#fbbc09"/>
</svg>
