<svg xmlns="http://www.w3.org/2000/svg" width="632.499" height="110.522" viewBox="0 0 632.499 110.522">
  <g id="opensource" transform="translate(-1235.583 -479.322)">
    <path id="Path_3214" data-name="Path 3214" d="M48.084-24.857q0,11.094-6.344,18.339T25.134.728Q14.907.728,8.615-6.518T2.323-24.857v-.763q0-11.024,6.275-18.3T25.1-51.2q10.262,0,16.623,7.28t6.362,18.3ZM38-25.689q0-7.835-3.259-12.723A10.833,10.833,0,0,0,25.1-43.3q-6.379,0-9.516,4.854T12.446-25.689v.832q0,7.974,3.172,12.844t9.516,4.871q6.414,0,9.638-4.871T38-24.857Zm20.725-5.72v-6.1h14.7l.485,4.368a12.024,12.024,0,0,1,3.987-3.744A10.775,10.775,0,0,1,83.3-38.2a12.483,12.483,0,0,1,10.816,5.443q3.848,5.443,3.848,14.318v.728q0,8.32-3.848,13.382A12.73,12.73,0,0,1,83.37.728,12.013,12.013,0,0,1,78.135-.364a10.752,10.752,0,0,1-3.917-3.207V7.28l4.888,1.04v6.1H59.241V8.32l4.888-1.04V-30.369ZM87.842-18.443a18.147,18.147,0,0,0-1.768-8.6,5.767,5.767,0,0,0-5.408-3.293,7.644,7.644,0,0,0-3.9.936,6.679,6.679,0,0,0-2.548,2.669V-10.3A6.206,6.206,0,0,0,76.765-7.87a8.585,8.585,0,0,0,3.969.832,5.823,5.823,0,0,0,5.391-2.877,15.19,15.19,0,0,0,1.716-7.8ZM127.53.728q-8.112,0-12.966-5.2a18.594,18.594,0,0,1-4.854-13.208v-1.387q0-8.355,4.594-13.763A15.249,15.249,0,0,1,126.628-38.2q7.592,0,11.787,4.576t4.195,12.376v5.512h-22.4l-.069.208a9.79,9.79,0,0,0,2.479,6.1,7.727,7.727,0,0,0,5.98,2.392,19.476,19.476,0,0,0,5.582-.676,25.654,25.654,0,0,0,4.854-2.132l2.739,6.24A19.927,19.927,0,0,1,135.763-.52,25.6,25.6,0,0,1,127.53.728Zm-.9-31.132a5.27,5.27,0,0,0-4.437,2.149A11.191,11.191,0,0,0,120.18-22.6l.1.173H132.7v-.9a8.12,8.12,0,0,0-1.508-5.148A5.435,5.435,0,0,0,126.628-30.4ZM153.94-6.067l4.854-1.04V-30.369l-5.374-1.04v-6.1h14.8l.451,5.374a13.72,13.72,0,0,1,4.611-4.472,11.969,11.969,0,0,1,6.136-1.595q5.686,0,8.875,3.571t3.189,11.2V-7.107l4.854,1.04V0H176.994V-6.067l4.333-1.04V-23.4q0-3.779-1.525-5.356a6.141,6.141,0,0,0-4.611-1.577,7.811,7.811,0,0,0-3.605.815,7.411,7.411,0,0,0-2.669,2.305V-7.107l4.091,1.04V0H153.94ZM269.266-34.356h-7.592l-1.317-6.934a13.421,13.421,0,0,0-3.848-1.456,22.381,22.381,0,0,0-5.374-.624,10.335,10.335,0,0,0-6.431,1.751,5.46,5.46,0,0,0-2.271,4.524,4.949,4.949,0,0,0,2.375,4.212,32.844,32.844,0,0,0,8.2,3.484q8.355,2.323,12.671,6.136a12.727,12.727,0,0,1,4.316,10.019,11.985,11.985,0,0,1-5.131,10.227Q259.732.728,251.343.728a29.32,29.32,0,0,1-10.834-1.907,22.316,22.316,0,0,1-8.06-5.27V-16.987h7.835l1.075,7.176A12.266,12.266,0,0,0,245.5-7.748a19.607,19.607,0,0,0,5.842.815q4.16,0,6.327-1.7a5.477,5.477,0,0,0,2.167-4.542,5.86,5.86,0,0,0-2.063-4.68q-2.063-1.768-7.228-3.328-8.979-2.6-13.59-6.171a11.693,11.693,0,0,1-4.611-9.776,12.018,12.018,0,0,1,5.2-10.036q5.2-3.9,13.07-4A30.4,30.4,0,0,1,261.223-49.4a24.49,24.49,0,0,1,8.043,4.715ZM281.324-19.1q0-8.39,4.7-13.746T299-38.2q8.32,0,13.018,5.339t4.7,13.763v.728q0,8.459-4.7,13.781T299.074.728q-8.355,0-13.052-5.322t-4.7-13.781Zm10.123.728a16.319,16.319,0,0,0,1.8,8.234,6.224,6.224,0,0,0,5.824,3.1,6.162,6.162,0,0,0,5.738-3.12,16.21,16.21,0,0,0,1.82-8.216V-19.1a16.045,16.045,0,0,0-1.837-8.147A6.216,6.216,0,0,0,299-30.4a6.139,6.139,0,0,0-5.755,3.155,16.3,16.3,0,0,0-1.8,8.147ZM354.466-4.75a12.535,12.535,0,0,1-4.455,4.056,12.605,12.605,0,0,1-6.05,1.421q-5.928,0-9.291-3.8t-3.363-11.8v-15.5l-4.125-1.04v-6.1h14.249V-14.8q0,4.091,1.369,5.876a4.814,4.814,0,0,0,4.073,1.785,10.116,10.116,0,0,0,4.143-.78,7.22,7.22,0,0,0,2.86-2.236V-30.369l-4.437-1.04v-6.1H364v30.4l4.542,1.04V0H355.125Zm25.925-1.317,4.854-1.04V-30.369l-5.374-1.04v-6.1h14.8l.451,5.478a11.807,11.807,0,0,1,3.4-4.542,7.593,7.593,0,0,1,4.819-1.629,12.383,12.383,0,0,1,1.681.121,10.3,10.3,0,0,1,1.473.295l-1.075,9.222-4.16-.1a7.09,7.09,0,0,0-3.675.867,5.6,5.6,0,0,0-2.219,2.461V-7.107l4.854,1.04V0h-19.83Zm53.174-.971A5.966,5.966,0,0,0,437.9-8.615a5.593,5.593,0,0,0,1.629-4.212h9.152l.1.208A11.7,11.7,0,0,1,444.52-3.1,16.094,16.094,0,0,1,433.565.728q-8.39,0-12.931-5.3T416.092-18.2v-1.04q0-8.286,4.663-13.625t13.3-5.339a23.077,23.077,0,0,1,8.147,1.352,16.1,16.1,0,0,1,6,3.813l.139,10.019h-8.216l-1.664-5.859a6.394,6.394,0,0,0-1.872-1.092,6.916,6.916,0,0,0-2.531-.433q-4.3,0-6.067,3.12a16.2,16.2,0,0,0-1.768,8.043v1.04a17.276,17.276,0,0,0,1.629,8.095Q429.474-7.038,433.565-7.038ZM478.418.728q-8.112,0-12.966-5.2A18.594,18.594,0,0,1,460.6-17.681v-1.387q0-8.355,4.594-13.763A15.249,15.249,0,0,1,477.517-38.2q7.592,0,11.787,4.576T493.5-21.251v5.512H471.1l-.069.208a9.79,9.79,0,0,0,2.479,6.1,7.727,7.727,0,0,0,5.98,2.392,19.476,19.476,0,0,0,5.582-.676,25.654,25.654,0,0,0,4.854-2.132l2.739,6.24A19.926,19.926,0,0,1,486.652-.52,25.6,25.6,0,0,1,478.418.728Zm-.9-31.132a5.27,5.27,0,0,0-4.437,2.149,11.191,11.191,0,0,0-2.011,5.651l.1.173h12.411v-.9a8.12,8.12,0,0,0-1.508-5.148A5.435,5.435,0,0,0,477.517-30.4Z" transform="translate(1374.583 552.526)" fill="#fff"/>
    <path id="open-source" d="M58.914,15.93A58.9,58.9,0,0,0,29.942,126.123a2.416,2.416,0,0,0,1.866.231,2.456,2.456,0,0,0,1.473-1.149L51.45,93.095a2.455,2.455,0,0,0-.928-3.344,17.187,17.187,0,1,1,16.834,0,2.455,2.455,0,0,0-.928,3.344l18.12,32.11a2.455,2.455,0,0,0,1.473,1.154,2.357,2.357,0,0,0,.658.093,2.455,2.455,0,0,0,1.208-.319A58.9,58.9,0,0,0,58.914,15.93Z" transform="translate(1235.583 463.392)" fill="#4caf50"/>
  </g>
</svg>
