<svg xmlns="http://www.w3.org/2000/svg" width="65" height="65" viewBox="0 0 65 65">
  <g id="Sharepoint" transform="translate(-1008 324)">
    <g id="sp" transform="translate(929 -1073)">
      <rect id="Rectangle_42" data-name="Rectangle 42" width="65" height="65" transform="translate(79 749)" fill="rgba(0,114,198,0)"/>
      <path id="sharepoint-1" d="M0,4.981,27.842,0q.014,23.85,0,47.7C18.568,46.056,9.293,44.382,0,42.738ZM9.274,15.747a6.442,6.442,0,0,0-1.281,4.924,5.969,5.969,0,0,0,2.132,3.805c1.033.88,2.352,1.415,3.279,2.448a2.272,2.272,0,0,1,.172,2.9,2.394,2.394,0,0,1-2.3.583,5.618,5.618,0,0,1-3.308-1.989l.01,4.121a7.35,7.35,0,0,0,4.513,1.31,5.469,5.469,0,0,0,3.165-.966,5.151,5.151,0,0,0,1.96-3.566,6.268,6.268,0,0,0-1.033-4.656,11.485,11.485,0,0,0-3.222-2.61A5.309,5.309,0,0,1,11.655,20.6a2.314,2.314,0,0,1,.258-2.792,2.89,2.89,0,0,1,2.381-.555A5.343,5.343,0,0,1,17,18.424V14.332a9.02,9.02,0,0,0-4.092-.478,5.641,5.641,0,0,0-3.633,1.893ZM30.538,7.993a4.57,4.57,0,0,1,7.725,2.065,5.016,5.016,0,0,1,.086,2.132,12.523,12.523,0,0,1,6.817,7.027,4.528,4.528,0,0,1,3.853,1.071,4.865,4.865,0,0,1,1.071,5.794,4.612,4.612,0,0,1-4.934,2.438,12.441,12.441,0,0,1-6.788,7.008,4.923,4.923,0,0,1-1.319,4.3,4.519,4.519,0,0,1-4.6,1.1A4.447,4.447,0,0,1,30.556,39.7V33.139a4.58,4.58,0,0,1,3.48-1.444,4.691,4.691,0,0,1,3.213,1.52,10.03,10.03,0,0,0,5.66-5.861A5.066,5.066,0,0,1,41.466,24.4a4.931,4.931,0,0,1,1.444-4.025,10.045,10.045,0,0,0-5.689-5.89,4.571,4.571,0,0,1-2.954,1.539,4.641,4.641,0,0,1-3.729-1.415Z" transform="translate(87.295 757.3)" fill="#fff"/>
    </g>
  </g>
</svg>
