<svg xmlns="http://www.w3.org/2000/svg" width="130" height="130" viewBox="0 0 130 130"><g transform="translate(-0.537 -0.837)"><rect width="130" height="130" transform="translate(0.537 0.837)" fill="#2c4888"/><g transform="translate(17.537 48.529)"><path d="M88.944,232.622V206.374H81V203.1h22.141v3.274h-7.89v26.248Z" transform="translate(-81 -198.403)" fill="#fff"/><path d="M175.447,195.939a3.362,3.362,0,0,1-1.047-2.576,3.484,3.484,0,0,1,1.047-2.55,3.28,3.28,0,0,1,2.389-.912,3.243,3.243,0,0,1,2.335.886,3.909,3.909,0,0,1,0,5.207,3.379,3.379,0,0,1-2.335.886A3.667,3.667,0,0,1,175.447,195.939Zm-.644,27.026V200.286h6.039v22.678Z" transform="translate(-149.333 -188.746)" fill="#fff"/><path d="M218.7,219.818v-33.87l6.039-.349v34.192H218.7Z" transform="translate(-181.744 -185.6)" fill="#fff"/><path d="M261.7,219.818v-33.87l6.039-.349v34.192H261.7Z" transform="translate(-213.204 -185.6)" fill="#fff"/><path d="M304.147,195.939a3.362,3.362,0,0,1-1.047-2.576,3.484,3.484,0,0,1,1.047-2.55,3.28,3.28,0,0,1,2.389-.912,3.243,3.243,0,0,1,2.335.886,3.909,3.909,0,0,1,0,5.207,3.379,3.379,0,0,1-2.335.886A3.614,3.614,0,0,1,304.147,195.939Zm-.617,27.026V200.286h6.039v22.678Z" transform="translate(-243.493 -188.746)" fill="#fff"/><path d="M346.782,218.979a9.189,9.189,0,0,1-3.328-3.972,14.219,14.219,0,0,1-1.154-5.958,17.185,17.185,0,0,1,1.127-6.468,9.4,9.4,0,0,1,3.247-4.294,8.175,8.175,0,0,1,4.858-1.53,10.261,10.261,0,0,1,2.952.376,6.522,6.522,0,0,1,1.771.805c.376.3.59.456.59.51h.134v-12.4l6.039-.349v34.192h-5.046l-.671-2.04h-.054c0,.107-.188.349-.537.778a5.294,5.294,0,0,1-1.744,1.208,7.047,7.047,0,0,1-3.14.59A9.434,9.434,0,0,1,346.782,218.979Zm8.293-2.576a5.269,5.269,0,0,0,1.315-.993,2.275,2.275,0,0,0,.483-.644V201.7a1.752,1.752,0,0,0-.51-.483,6.37,6.37,0,0,0-1.235-.671,4.745,4.745,0,0,0-1.852-.349,3.711,3.711,0,0,0-3.516,1.932c-.725,1.288-1.074,3.516-1.074,6.736a19.015,19.015,0,0,0,.483,4.885,4.257,4.257,0,0,0,1.4,2.389,4.077,4.077,0,0,0,2.469.671A3.659,3.659,0,0,0,355.075,216.4Z" transform="translate(-272.172 -185.673)" fill="#fff"/></g></g></svg>