<svg xmlns="http://www.w3.org/2000/svg" width="39.31" height="31.908" viewBox="0 0 39.31 31.908"><path d="M265.5,1148.838v1.032a23.325,23.325,0,0,1-1.481,8.077,24.076,24.076,0,0,1-4.4,7.359,21.817,21.817,0,0,1-7.18,5.386,23.422,23.422,0,0,1-9.828,2.064,22.979,22.979,0,0,1-6.552-.942,22.281,22.281,0,0,1-5.834-2.648q.942.091,1.93.09a16.021,16.021,0,0,0,5.34-.9,16.736,16.736,0,0,0,4.667-2.513,8.058,8.058,0,0,1-4.667-1.638,7.771,7.771,0,0,1-2.827-3.971,8.01,8.01,0,0,0,1.481.135,8.316,8.316,0,0,0,2.109-.269,7.789,7.789,0,0,1-3.276-1.5,8,8,0,0,1-2.311-2.828,8.4,8.4,0,0,1-.875-3.568v-.135a7.558,7.558,0,0,0,3.68,1.032,8.117,8.117,0,0,1-2.625-2.894,7.885,7.885,0,0,1-.965-3.837,8.014,8.014,0,0,1,1.077-4.039,23.012,23.012,0,0,0,16.6,8.435,9.328,9.328,0,0,1-.18-1.84,7.852,7.852,0,0,1,1.077-4.039,8.13,8.13,0,0,1,2.939-2.939,7.766,7.766,0,0,1,4.016-1.1,7.988,7.988,0,0,1,5.879,2.559,15.668,15.668,0,0,0,5.116-1.974,7.8,7.8,0,0,1-1.369,2.58,8.286,8.286,0,0,1-2.176,1.907,16.385,16.385,0,0,0,4.667-1.3A16.873,16.873,0,0,1,265.5,1148.838Z" transform="translate(-230.23 -1140.849)" fill="#030640"/></svg>