<svg id="whoweare" xmlns="http://www.w3.org/2000/svg" width="921.319" height="826.4" viewBox="0 0 921.319 826.4">
  <g id="Group_2255" data-name="Group 2255">
    <rect id="Rectangle_216" data-name="Rectangle 216" width="921.315" height="826.4" fill="#eafaf9"/>
    <g id="Group_2254" data-name="Group 2254" transform="translate(0.074 62.074)">
      <path id="Path_4040" data-name="Path 4040" d="M921.421,1343.8a322.256,322.256,0,0,0-75.689,28.123c-49.253,25.577-75.167,56.332-128.188,72.818-79.712,24.787-115.218,24.334-188.979,12.653-132.56-20.994-196.185-48.245-321.954-82.579C124.476,1352.393,66.425,1352.393.18,1389.084v228.364H921.425V1343.8Z" transform="translate(-0.18 -853.126)" fill="#c9ecea" opacity="0.6"/>
      <g id="Group_2252" data-name="Group 2252" transform="translate(144.431)">
        <line id="Line_10" data-name="Line 10" x2="41.549" transform="translate(378.985 229.149)" fill="none" stroke="#fff" stroke-miterlimit="10" stroke-width="13.002"/>
        <line id="Line_11" data-name="Line 11" x2="70.733" fill="none" stroke="#fff" stroke-miterlimit="10" stroke-width="16.965"/>
        <g id="Group_2251" data-name="Group 2251" transform="translate(522.717 145.176)">
          <line id="Line_12" data-name="Line 12" x2="14.454" fill="none" stroke="#fff" stroke-miterlimit="10" stroke-width="14.635"/>
          <line id="Line_13" data-name="Line 13" x2="14.458" transform="translate(20.694)" fill="none" stroke="#fff" stroke-miterlimit="10" stroke-width="14.635"/>
          <line id="Line_14" data-name="Line 14" x2="14.458" transform="translate(41.388)" fill="none" stroke="#fff" stroke-miterlimit="10" stroke-width="14.635"/>
        </g>
        <path id="Path_4041" data-name="Path 4041" d="M712.844,419.732a9.082,9.082,0,1,1-9.082-9.082A9.082,9.082,0,0,1,712.844,419.732Z" transform="translate(-553.441 -303.811)" fill="none" stroke="#fff" stroke-miterlimit="10" stroke-width="16.162"/>
        <path id="Path_4042" data-name="Path 4042" d="M1240.875,213.938a7.9,7.9,0,1,1-7.9-7.9A7.9,7.9,0,0,1,1240.875,213.938Z" transform="translate(-865.67 -183.363)" fill="none" stroke="#fff" stroke-miterlimit="10" stroke-width="14.054"/>
      </g>
      <path id="Path_4043" data-name="Path 4043" d="M1878.35,222.223a21.936,21.936,0,0,0-31.471-29.554c.037-.5.078-1,.078-1.514a21.941,21.941,0,0,0-31.891-19.584,29.7,29.7,0,1,0-56.55,18.189,21.938,21.938,0,0,0-26.115,32.462Z" transform="translate(-1017.81 -150.91)" fill="#fffef0" opacity="0.6"/>
      <path id="Path_4044" data-name="Path 4044" d="M274.647,355.279a16.649,16.649,0,0,0-23.886-22.43c.029-.383.058-.761.058-1.148a16.653,16.653,0,0,0-24.2-14.861,22.538,22.538,0,1,0-42.91,13.8,16.65,16.65,0,0,0-19.822,24.639H274.647Z" transform="translate(-94.973 -239.357)" fill="#fffef0" opacity="0.6"/>
      <g id="Group_2253" data-name="Group 2253" transform="translate(448.793 345.046)" opacity="0.6">
        <rect id="Rectangle_217" data-name="Rectangle 217" width="6.359" height="161.604" transform="translate(62.946 129.825)" fill="#fffef0"/>
        <path id="Path_4045" data-name="Path 4045" d="M1204.342,1051.707a20.34,20.34,0,0,0-18.156-29.567c-.473,0-.938.037-1.4.074a20.341,20.341,0,0,0-27.407-29.18,20.341,20.341,0,0,0-27.407,29.18c-.465-.033-.93-.074-1.4-.074a20.34,20.34,0,0,0-18.156,29.567,27.541,27.541,0,1,0,16.865,52.437,20.342,20.342,0,0,0,30.1,24.219,20.334,20.334,0,0,0,30.1-24.219,27.541,27.541,0,1,0,16.865-52.437Z" transform="translate(-1091.25 -989.76)" fill="#fffef0"/>
      </g>
    </g>
  </g>
  <ellipse id="Ellipse_5570" data-name="Ellipse 5570" cx="92.361" cy="41.096" rx="92.361" ry="41.096" transform="translate(118.139 688.221)" fill="#9eabd3"/>
  <ellipse id="Ellipse_5571" data-name="Ellipse 5571" cx="92.361" cy="41.096" rx="92.361" ry="41.096" transform="translate(448.003 698.55)" fill="#9eabd3"/>
  <ellipse id="Ellipse_5572" data-name="Ellipse 5572" cx="92.361" cy="41.096" rx="92.361" ry="41.096" transform="translate(645.015 703.63)" fill="#9eabd3"/>
  <g id="Group_2272" data-name="Group 2272" transform="translate(141.733 191.747)">
    <path id="Path_4046" data-name="Path 4046" d="M442.151,1221.915c8.181-38.221,10.633-126.744,10.633-126.744s-6.557-8.7-30.167-10.222c-23.672-1.522-22.043,13.023-21.928,11.135,0,0,.021,62.646,10.863,124.333C411.548,1220.414,428.384,1232.026,442.151,1221.915Z" transform="translate(-377.568 -830.356)" fill="#007ea3"/>
    <path id="Path_4047" data-name="Path 4047" d="M400.475,1054.366c-2.328-15.816,2.493-31.767,4.981-47.756h71.9c4.6,15.326,9.383,31.072,9.383,31.072s3.077,36.259-27.72,40.6C459.024,1078.285,405.362,1087.585,400.475,1054.366Z" transform="translate(-377.116 -784.306)" fill="#007ea3"/>
    <g id="Group_2256" data-name="Group 2256" transform="translate(94.101 35.69)">
      <path id="Path_4048" data-name="Path 4048" d="M573.34,580.334v99.645c0,3.213,2.164,3.8,2.164,3.8l86.581,36.251c3.891.666,3.451-3.027,3.451-3.027V618.284c0-3.636-2.382-4.167-2.382-4.167L576.91,578S573.34,576.509,573.34,580.334Z" transform="translate(-573.34 -567.52)" fill="#699fd5"/>
      <path id="Path_4049" data-name="Path 4049" d="M810.166,753.142,793.82,763.787c1.378-.44,1.46-2.258,1.46-2.258l.041-99.205,15.392-10.074v99.538A1.5,1.5,0,0,1,810.166,753.142Z" transform="translate(-703.129 -611.395)" fill="#196eab"/>
      <path id="Path_4050" data-name="Path 4050" d="M587.109,553.948c-5.413,3.669-7.618,5.146-9.321,6.3l-3.192,2.16a2.483,2.483,0,0,0-1.053,2.39s.358-2.41,3.426-1.394l86.993,36.473s1.711.884,1.695,3.982l15.392-10.032a4.544,4.544,0,0,0-2.283-4.257l-86.33-36.193A5.412,5.412,0,0,0,587.109,553.948Z" transform="translate(-573.457 -552.927)" fill="#447fc1"/>
      <path id="Path_4051" data-name="Path 4051" d="M808.388,642.3s1.979.7,1.979,3.838l-15.3,10.333c.017-3.1-1.695-3.982-1.695-3.982Z" transform="translate(-702.865 -605.538)" fill="#3f89c8"/>
    </g>
    <g id="Group_2257" data-name="Group 2257" transform="translate(81.872 530.969)">
      <path id="Path_4052" data-name="Path 4052" d="M567.373,1774.583l-4.1-.239c-1.4-.214-1.386,1.978-1.575,2.057-4.286,1.687-8.091,3.011-9.7,3.077,0,0-7.581-.987-8.391-3.282l1.069-14.063c8.449-.712,17.264-2.345,17.264-2.345l18.563-2.608c8.93-.93,10.555,2.3,10.555,2.3S596.532,1767.652,567.373,1774.583Z" transform="translate(-543.61 -1757.012)" fill="#17181c"/>
      <path id="Path_4053" data-name="Path 4053" d="M556.1,1775.782a22.65,22.65,0,0,1,4.8-1.563c9.16-1.6,18.115-2.513,25.741-8.4a7.518,7.518,0,0,0,3.307-5.36,3.279,3.279,0,0,1,1.107,1.049s5.471,8.169-23.685,15.1l-4.1-.239c-1.4-.214-1.386,1.979-1.576,2.057-4.286,1.686-8.091,3.011-9.7,3.077,0,0-7.581-.987-8.391-3.282l.263-3.426C546.888,1776.535,552.215,1777.584,556.1,1775.782Z" transform="translate(-543.61 -1759.041)" fill="#040308"/>
    </g>
    <g id="Group_2258" data-name="Group 2258" transform="translate(29.575 523.021)">
      <path id="Path_4054" data-name="Path 4054" d="M440.237,1755.257l-4.1-.234c-1.394-.218-1.386,1.979-1.575,2.053-4.286,1.686-8.091,3.011-9.7,3.077,0,0-7.581-.983-8.391-3.282l1.065-14.059c8.449-.707,17.264-2.34,17.264-2.34l18.563-2.612c8.93-.934,10.555,2.3,10.555,2.3S469.392,1748.326,440.237,1755.257Z" transform="translate(-416.47 -1737.688)" fill="#17181c"/>
      <path id="Path_4055" data-name="Path 4055" d="M428.966,1756.452a22.193,22.193,0,0,1,4.8-1.563c9.156-1.6,18.115-2.513,25.741-8.4a7.526,7.526,0,0,0,3.307-5.36,3.324,3.324,0,0,1,1.111,1.049s5.467,8.169-23.689,15.1l-4.1-.234c-1.394-.218-1.386,1.979-1.575,2.053-4.286,1.686-8.091,3.011-9.7,3.077,0,0-7.581-.983-8.391-3.282l.259-3.422C419.744,1757.2,425.075,1758.254,428.966,1756.452Z" transform="translate(-416.47 -1739.714)" fill="#040308"/>
    </g>
    <path id="Path_4056" data-name="Path 4056" d="M434.263,1537.042c3.04-3.628,13.019-136.965,13.019-136.965,1.654-20.5-32.429-11.892-32.429-11.892-4.961,20.406-4.159,24.248-5.718,49.57-.617,10,.979,92.834.609,99.2C409.739,1536.951,425.559,1547.432,434.263,1537.042Z" transform="translate(-382.493 -1007.871)" fill="#007ea3"/>
    <path id="Path_4057" data-name="Path 4057" d="M455.756,1045s20.464,34.844,7.869,57.623-65.653-2.011-62.391-28.39C404.812,1045.3,431.014,1032.772,455.756,1045Z" transform="translate(-377.841 -804.158)" fill="#338cb0"/>
    <path id="Path_4058" data-name="Path 4058" d="M470.134,932.2c3.324,11.83,17.033,56.961,17.033,56.961-37.571,35.432-86.067,7.338-86.557,1.983-.588-6.413,6.569-30.9,7.873-57.3C408.484,933.846,421.864,913.238,470.134,932.2Z" transform="translate(-377.539 -735.781)" fill="#f7a483"/>
    <path id="Path_4059" data-name="Path 4059" d="M608.19,1426.55" transform="translate(-499.755 -1031.511)" fill="#152035"/>
    <path id="Path_4060" data-name="Path 4060" d="M552.693,1198.875C548.7,1159.992,521,1060.8,521,1060.8s-8.095-7.453-31.027-1.629c-22.993,5.841-25.47,35.761-25.947,33.927,0,0,26.683,62.786,62.185,118.1C526.219,1211.195,543.368,1219.977,552.693,1198.875Z" transform="translate(-414.892 -813.934)" fill="#338cb0"/>
    <path id="Path_4061" data-name="Path 4061" d="M569.029,1538.638c1.46-4.5,31.788-144.814,31.788-144.814.263-19.008-28.69-13.064-28.69-13.064-5.421,11.229-11.752,24.881-15.116,50.026-1.333,9.93-10.148,103.376-10.97,109.7C546.036,1540.481,561.49,1546.244,569.029,1538.638Z" transform="translate(-463.169 -1004.038)" fill="#338cb0"/>
    <g id="Group_2259" data-name="Group 2259" transform="translate(1.73 91.209)">
      <path id="Path_4062" data-name="Path 4062" d="M350.912,713.625s-3.718,62.576-1.345,87.84c0,0,0,11.48,20.221,17.235,0,0,7.355-69.672,13.344-100.772C383.127,717.928,371.182,694.86,350.912,713.625Z" transform="translate(-348.775 -698.715)" fill="#e59375"/>
      <path id="Path_4063" data-name="Path 4063" d="M376.327,718.977a16.365,16.365,0,0,1-21.422-8.531,16.148,16.148,0,0,1,8.617-21.241,16.372,16.372,0,0,1,21.422,8.531A16.138,16.138,0,0,1,376.327,718.977Z" transform="translate(-351.612 -687.901)" fill="#e59375"/>
    </g>
    <path id="Path_4064" data-name="Path 4064" d="M362.533,681.1s-14.783,3.418-15.573,20.558l-2.39,61.679s14.759,9.8,33.89,8.136C378.46,771.478,400.524,689.1,362.533,681.1Z" transform="translate(-344.57 -592.688)" fill="#56be8b"/>
    <path id="Path_4065" data-name="Path 4065" d="M601.79,1453.9" transform="translate(-495.987 -1047.611)" fill="#f7a483"/>
    <path id="Path_4066" data-name="Path 4066" d="M482.776,585.9s.132,22.027,2.057,43.971l-29.057-4.813s4.257-10.024-1.736-18.979Z" transform="translate(-409.011 -536.647)" fill="#f7a483"/>
    <path id="Path_4067" data-name="Path 4067" d="M378.4,676.382c-7.3,5.331-8.136,18.082-5.532,26.05,2.99,9.148,4.179,20.826,7.174,34.054,4.06,17.93,6.812,31.738,11.336,49.545,3.743,14.726,62.917,2.859,62.917,2.859L475.5,716.417s3.653-18.921-13.488-25.215c0,0-18.057-9.744-31.278-14.224-11.674-3.953-15.9-4.323-27.88-3.587C402.864,673.391,386.806,673.98,378.4,676.382Z" transform="translate(-360.435 -587.97)" fill="#f7a483"/>
    <path id="Path_4068" data-name="Path 4068" d="M525.8,1040.256s12.595,20.324,0,43.1-51.042,14.479-51.153-15.03C474.538,1039.183,501.065,1028.036,525.8,1040.256Z" transform="translate(-421.143 -801.231)" fill="#338cb0"/>
    <path id="Path_4069" data-name="Path 4069" d="M403,673.83s-16.058.592-24.462,2.99c-7.6,5.549-7.462,16.445-6,24.692,2.8,15.771,5.639,31.7,7.108,47.653.65,7.067,2.406,21.455,2.937,28.53.51,6.865,2.682,10.645,9.712,14.273,5.339,2.756,9.308.568,15.129.724,14.8.4,29.4-1.214,44.062-3.027.617-.074,9.856-.74,9.991-1.423l14.166-71.391s3.653-18.921-13.488-25.215a138.253,138.253,0,0,0-25.272-12.023S413.9,680.206,403,673.83Z" transform="translate(-360.572 -588.409)" fill="#56be8b"/>
    <path id="Path_4070" data-name="Path 4070" d="M470.538,554.132l1.242-4.784s2.937-17.638,2.937-17.642a17.729,17.729,0,0,0-.551-7.264,17.837,17.837,0,0,1-.9-7.445c1.686-12.636-5.393-18.909-5.393-18.909-8.235-10.822-25.367-9.308-25.371-9.3-8.885,1.345-16.643,5.018-21.064,13.121-4.01,7.351-6.186,16.313-3.809,24.52,2.608,8.992,7.647,16.021,14.314,22.4,4.27,4.08,8.63,4.582,14.22,6.627,3.891,1.423,11.332,2.25,15.466,2.279C463.793,557.731,469.827,556.88,470.538,554.132Z" transform="translate(-386.997 -479.434)" fill="#f8a07d"/>
    <path id="Path_4071" data-name="Path 4071" d="M463.329,500l-2.731,10.95c-3.11,1.366-4.36,2.567-3.932,6.664l.987,9.045-2.464.942c.206-3.62-4.817-3.673-4.817-3.673-3.673-.21-4.3,2.92-4.089,5.935.543,7.824-2.3,20.258-8.868,22.442-2.591.864-7.478,1.765-8.3-1.744-1-4.29-9.127-12.817-9.127-12.817-9.765-9.457-12.212-25.6-7.6-37.929a29.867,29.867,0,0,1,7.009-10.361c6.092-5.824,13.755-8.691,21.842-9.744,0,0,11.135-1.357,17.391,3.036a35.941,35.941,0,0,1,8.083,7.392S469.088,495.169,463.329,500Z" transform="translate(-383.169 -474.018)" fill="#5f2500"/>
    <path id="Path_4072" data-name="Path 4072" d="M466.758,475.432c-.44-2.575-4.076-6.3-5.808-7.758-2.583-2.176-5.857.354-7.795,2.172-1.559,1.464-2.871,1.44-4.841.378-1.863-1.008-3.381-2.805-5.425-3.624-1.917-.761-4.122-.366-6.112-.066-4.089.613-6.828,4.854-10.88,5.668-2.567.514-2.941.7-4.278,2.789-1.028,1.6-6.1-.522-7.474,1.094-2.069,2.435-9.239,5.454-8.3,8.741-6.923,9.025.107,19.555,1.394,20.464,12,8.4,30.414-1.9,42.4-7.815a67.81,67.81,0,0,0,9.037-5.59,44.846,44.846,0,0,0,4.3-3.2C465.446,486.447,467.387,479.163,466.758,475.432Z" transform="translate(-378.868 -466.161)" fill="#5f2500"/>
    <g id="Group_2264" data-name="Group 2264" transform="translate(61.845 48.959)">
      <g id="Group_2263" data-name="Group 2263">
        <g id="Group_2262" data-name="Group 2262">
          <g id="Group_2261" data-name="Group 2261">
            <g id="Group_2260" data-name="Group 2260">
              <path id="Path_4073" data-name="Path 4073" d="M504.267,597.494a4.534,4.534,0,0,1-2.859,1.074c-3.25.16-6.141-2.707-6.458-6.4s2.069-6.816,5.319-6.972a5.718,5.718,0,0,1,4.146,1.584c1.666,1.534,1.909,4.541,1.67,6.639A6.248,6.248,0,0,1,504.267,597.494Z" transform="translate(-494.923 -585.185)" fill="#f8a07d"/>
            </g>
          </g>
        </g>
      </g>
    </g>
    <g id="Group_2267" data-name="Group 2267" transform="translate(64.773 51.111)">
      <g id="Group_2265" data-name="Group 2265">
        <path id="Path_4074" data-name="Path 4074" d="M505.989,591.629c-.317-1.929-4.126.177-3.459,1.23a5.909,5.909,0,0,0,1.674,1.431,2.87,2.87,0,0,1,1.341,2.044c.021.111.062.448-.045.535-.489.383-2.271-1.407-2.665-1.781a3.27,3.27,0,0,1-.67-3.073,1.957,1.957,0,0,1,2.065-1.6c.884,0,1.785,0,1.806,1.1,0,.025-.029.21-.045.111Z" transform="translate(-502.04 -590.419)" fill="#e98b6f"/>
      </g>
      <g id="Group_2266" data-name="Group 2266" transform="translate(0.773 3.089)">
        <path id="Path_4075" data-name="Path 4075" d="M505.972,598.148c.383-.44.794-.123,1.23.152a1.856,1.856,0,0,1,.777,1.1,4.577,4.577,0,0,1-.284,3.274,2.441,2.441,0,0,1-2.036,1.255c-1.185.041-1.6-.983-1.711-1.979-.029-.267-.095-.9.16-1.082.272-.193.5.23.7.407a1.662,1.662,0,0,0,1.028.313,2.132,2.132,0,0,0,1.707-.9,1.147,1.147,0,0,0,.16-.317c.037.654.012.8-.078.444a1.68,1.68,0,0,0-.251-.444c-.3-.436-.786-.72-1.119-1.131-.165-.185-.481-.872-.288-1.094Z" transform="translate(-503.918 -597.929)" fill="#e98b6f"/>
      </g>
    </g>
    <g id="Group_2268" data-name="Group 2268" transform="translate(178.422 142.942)">
      <path id="Path_4076" data-name="Path 4076" d="M796.9,813.67a22.191,22.191,0,0,1-4.8,7.585c-2.513,2.4-7.108,2.164-8.716,3.887-2.793,3.011-11.073,16.606,2.55,15.4,3.171-.276,14.084-1.246,15.483-6.594,2.069-7.9,1.575-11.3-2.147-17.173Z" transform="translate(-778.335 -813.67)" fill="#f7a483"/>
    </g>
    <g id="Group_2271" data-name="Group 2271" transform="translate(109.168 158.733)">
      <g id="Group_2269" data-name="Group 2269" transform="translate(0 51.544)">
        <path id="Path_4077" data-name="Path 4077" d="M609.97,977.37" transform="translate(-609.97 -977.37)" fill="#f8b78f"/>
      </g>
      <g id="Group_2270" data-name="Group 2270" transform="translate(0.609)">
        <path id="Path_4078" data-name="Path 4078" d="M619.689,893.613l68.52-41.553c8.844,1.608,7.939,5.6,7.939,5.6l-40.825,39.249c-17.025,16.988-30.081,20.069-30.081,20.069s-11.18,5.261-13.755-11.209C611.491,905.776,610.405,898.323,619.689,893.613Z" transform="translate(-611.45 -852.06)" fill="#f7a483"/>
      </g>
    </g>
    <path id="Path_4079" data-name="Path 4079" d="M548.716,754.5c4.895,11.225,20.789,74.492,26.827,83.546,1.6,2.406,16.861,8.778,21.241-5.557-6.462-57.936-16.355-93.282-16.355-93.282s-15.466-14.146-28.876-2.341C551.551,736.867,545.261,746.722,548.716,754.5Z" transform="translate(-464.134 -622.751)" fill="#f7a483"/>
    <path id="Path_4080" data-name="Path 4080" d="M550.178,739.121a18.2,18.2,0,1,0,25.141-5.479A18.192,18.192,0,0,0,550.178,739.121Z" transform="translate(-463.905 -621.92)" fill="#f7a483"/>
    <path id="Path_4081" data-name="Path 4081" d="M542.6,745.078l10.226,60.355c19.839,3.649,37.933-10.937,37.933-10.937L582.3,740.664s-6.182-21.463-24.075-23.524C558.226,717.136,537.857,720.986,542.6,745.078Z" transform="translate(-460.724 -613.904)" fill="#56be8b"/>
    <path id="Path_4082" data-name="Path 4082" d="M476.422,905.781c3.324,11.83,9.136,85.117,9.136,85.117-8.8,23.5-92.793,3.665-93.278-1.69-.588-6.413,1.131-51.561,2.431-77.964C394.711,911.243,428.152,886.823,476.422,905.781Z" transform="translate(-372.585 -720.706)" fill="#56be8b"/>
    <path id="Path_4083" data-name="Path 4083" d="M790.45,828.294s3.159,4.381,5.812-1.538l-.276-7.819s.276-2.176-1.633-2.686c0,0-1.292,0-1.584,2.225Z" transform="translate(-607.045 -672.247)" fill="#f7a483"/>
  </g>
  <g id="Group_2297" data-name="Group 2297" transform="translate(655.138 179.327)">
    <g id="Group_2296" data-name="Group 2296">
      <g id="Group_2274" data-name="Group 2274" transform="translate(17.415 540.287)">
        <g id="Group_2273" data-name="Group 2273" transform="translate(0.004)">
          <path id="Path_4084" data-name="Path 4084" d="M1666.762,1765.611c-6.372,6.413-16.877,9.839-16.877,9.843a14.408,14.408,0,0,1-14.068-3.64c-1.9-2.661.411-4.121.411-4.121,18.675-14.2,24.265-18.222,24.265-18.222h17.144c.839,6.894.37,9.675.37,9.675a14.861,14.861,0,0,1-9.407,5.7c-.35.062-1.012-.457-1.345-.321Z" transform="translate(-1635.067 -1749.47)" fill="#17181c"/>
        </g>
        <path id="Path_4085" data-name="Path 4085" d="M1636.145,1776.75a4.609,4.609,0,0,0,.358,1.168c1.448,3.11,5.483,4.389,8.679,4.344,3.842-.053,7.33-1.933,10.674-3.624a47.291,47.291,0,0,0,8.84-5.993c1.933-1.6,4.4-2.353,6.684-3.344,2.575-1.123,4.516-2.871,6.742-4.541.008,1.847-.119,3.381-.119,3.381a14.861,14.861,0,0,1-9.407,5.7c-.349.062-1.012-.457-1.345-.321l-.5,1.09c-6.372,6.413-16.877,9.839-16.877,9.843a14.407,14.407,0,0,1-14.068-3.64C1634.122,1778.453,1635.755,1777.038,1636.145,1776.75Z" transform="translate(-1635.059 -1758.471)"/>
      </g>
      <g id="Group_2275" data-name="Group 2275" transform="translate(32.832 260.4)">
        <path id="Path_4086" data-name="Path 4086" d="M1701.583,1209.886c-19.065,21.048-26.621-1.213-26.621-1.213L1672.6,1079.3c-.247,1.925-.88-13.047,23.187-9.806,24,3.233,30.077,12.587,30.077,12.587s-13.2,89.362-24.281,127.809" transform="translate(-1672.539 -1069.029)" fill="#e59375"/>
        <path id="Path_4087" data-name="Path 4087" d="M1678.14,1389.5s9.675,136.25,10.464,141.029c0,0,11.76,2.6,11.809-.107.136-6.528,13.562-86.26,13.734-96.511.436-25.963-6.256-30.87-12.932-48.364C1701.216,1385.547,1678.095,1368.452,1678.14,1389.5Z" transform="translate(-1675.836 -1251.498)" fill="#e59375"/>
      </g>
      <g id="Group_2277" data-name="Group 2277" transform="translate(31.455 260.4)">
        <g id="Group_2276" data-name="Group 2276">
          <path id="Path_4088" data-name="Path 4088" d="M1704.018,1210.746c11.077-38.447,19.88-128.669,19.88-128.669s-6.079-9.358-30.077-12.587c-24.067-3.241-23.434,11.731-23.187,9.806,0,0-4.434,63.974,2.242,127.739C1672.872,1207.031,1689.239,1220.091,1704.018,1210.746Z" transform="translate(-1669.191 -1069.029)" fill="#0b152a"/>
          <path id="Path_4089" data-name="Path 4089" d="M1705.052,1409.733c-19.065,21.048-26.622-1.213-26.622-1.213" transform="translate(-1674.63 -1268.876)" fill="#0b152a"/>
          <path id="Path_4090" data-name="Path 4090" d="M1681.957,1525.807c-2.813-3.949-3.817-140.709-3.817-140.709-.045-21.048,25.865-11.344,25.865-11.344,6.676,17.49,10.575,29.789,10.14,55.756-.173,10.255-7.026,91.645-7.157,98.173C1706.991,1527.683,1690.007,1537.111,1681.957,1525.807Z" transform="translate(-1674.459 -1247.096)" fill="#0b152a"/>
        </g>
      </g>
      <path id="Path_4091" data-name="Path 4091" d="M1724.9,1021.13s12.891,20.8,0,44.12-52.248,14.82-52.363-15.384C1672.424,1020.028,1699.58,1008.622,1724.9,1021.13Z" transform="translate(-1639.707 -777.484)" fill="#0b152a"/>
      <path id="Path_4092" data-name="Path 4092" d="M1743.651,913.521c3.4,12.105,17.436,58.306,17.436,58.306-50.244,60.112-88.1,7.511-88.6,2.032-.6-6.565,6.725-31.623,8.054-58.652C1680.548,915.2,1694.245,894.115,1743.651,913.521Z" transform="translate(-1639.657 -712.254)" fill="#f7a483"/>
      <path id="Path_4093" data-name="Path 4093" d="M1672.345,1038.573c-2.381-16.19,2.554-32.52,5.1-48.883h73.6c4.71,15.688,9.6,31.808,9.6,31.808s3.147,37.115-28.37,41.561C1732.281,1063.059,1677.351,1072.578,1672.345,1038.573Z" transform="translate(-1639.221 -761.925)" fill="#0b152a"/>
      <g id="Group_2278" data-name="Group 2278" transform="translate(64.822 264.009)">
        <path id="Path_4094" data-name="Path 4094" d="M1802.344,1217.881c-15.738,23.643-26.506,2.744-26.506,2.744l-25.527-126.036c.037,1.942.765-16.416,25.046-16.774,24.215-.358,31.611,7.992,31.611,7.992s.633,92.414-4.623,132.075" transform="translate(-1750.31 -1077.803)" fill="#f7a483"/>
        <path id="Path_4095" data-name="Path 4095" d="M1811.09,1404.489s25.281,143.576,26.765,148.187c0,0,12.015.831,11.665-1.855-.835-6.474,1.333-97.009-.016-107.177-3.414-25.741-6.98-30.167-16.178-46.477C1833.326,1397.163,1807.926,1383.679,1811.09,1404.489Z" transform="translate(-1785.928 -1263.271)" fill="#f7a483"/>
      </g>
      <g id="Group_2279" data-name="Group 2279" transform="translate(108.489 547.699)">
        <path id="Path_4096" data-name="Path 4096" d="M1863.582,1770.43l-7.112,21.681s1.469,19.411,17.037,7.379l4.636-4.492a4.958,4.958,0,0,0,1.674-4.767l-1.386-8.309-1.649-11.5S1867.029,1763.812,1863.582,1770.43Z" transform="translate(-1856.47 -1767.489)" fill="#17181c"/>
        <path id="Path_4097" data-name="Path 4097" d="M1873.513,1828.582l4.636-4.488a4.867,4.867,0,0,0,1.6-2.484l.082.485a4.969,4.969,0,0,1-1.674,4.767l-4.636,4.492c-15.565,12.027-17.037-7.379-17.037-7.379l.276-.847C1857.628,1827.71,1861.058,1838.207,1873.513,1828.582Z" transform="translate(-1856.476 -1799.348)"/>
      </g>
      <g id="Group_2281" data-name="Group 2281" transform="translate(61.63 250.576)">
        <g id="Group_2280" data-name="Group 2280">
          <path id="Path_4098" data-name="Path 4098" d="M1884.97,1419.55" transform="translate(-1826.388 -1265.545)" fill="#152035"/>
          <path id="Path_4099" data-name="Path 4099" d="M1801.132,1199.15c5.257-39.661,1.222-145.007,1.222-145.007s-6.289-9.345-30.509-8.987c-24.281.358-29.254,28-29.3,26.062,0,0,20.427,107.892,29.3,133.913C1771.845,1205.135,1786.838,1217.948,1801.132,1199.15Z" transform="translate(-1742.55 -1045.146)" fill="#152035"/>
          <path id="Path_4100" data-name="Path 4100" d="M1831.416,1544.9c-1.485-4.611-21.348-147.833-21.348-147.833-.243-19.456,25.355-14.68,25.355-14.68,9.193,16.309,11.328,23.931,14.742,49.672,1.349,10.164,3.953,104.2,4.788,110.677C1854.956,1542.735,1844.22,1550.2,1831.416,1544.9Z" transform="translate(-1782.294 -1243.365)" fill="#152035"/>
        </g>
      </g>
      <g id="Group_2283" data-name="Group 2283" transform="translate(0 90.766)">
        <path id="Path_4101" data-name="Path 4101" d="M1658.756,687.082s-8.852,62.852-17.543,87.326c0,0-14.323,3.064-18.963-5.047,0,0,1.6-53.724,3.455-86.092C1625.705,683.269,1643.347,663.373,1658.756,687.082Z" transform="translate(-1610.103 -667.712)" fill="#e59375"/>
        <path id="Path_4102" data-name="Path 4102" d="M1613.532,890.589s-3.081,51.861-6.092,72.185c0,0,2.5,5.672,5.9,1.46,5.668-7.042,22.644-70.877,19.395-74.867C1617.575,870.738,1613.532,890.589,1613.532,890.589Z" transform="translate(-1601.385 -788.94)" fill="#e59375"/>
        <path id="Path_4103" data-name="Path 4103" d="M1637.2,686.376a16.752,16.752,0,0,0,23.4-3.089,16.527,16.527,0,0,0-3.225-23.244,16.76,16.76,0,0,0-23.4,3.089A16.526,16.526,0,0,0,1637.2,686.376Z" transform="translate(-1615.01 -656.628)" fill="#e59375"/>
        <g id="Group_2282" data-name="Group 2282" transform="translate(0 167.697)">
          <path id="Path_4104" data-name="Path 4104" d="M1612.64,1102.392l-2.489,7.211,2.464,10.649s-2.131,1.287-3.546-2.316l-2.32-8.835,2.11-8.251Z" transform="translate(-1600.979 -1085.824)" fill="#e59375"/>
          <path id="Path_4105" data-name="Path 4105" d="M1606.172,1107.282l-2.892,7.063,1.867,10.765s-2.2,1.168-3.406-2.509l-1.822-8.951,2.567-8.12Z" transform="translate(-1596.958 -1088.579)" fill="#e59375"/>
          <path id="Path_4106" data-name="Path 4106" d="M1593.337,1083.11l2.962-8.367,3.488-10.423,6.869.333.177,11.711-.551,6.03-.847,8.214-.136,2.678s-2.221.284-3.073-4.183l-.276-7.947-4.027,5.446.477,10.995s-1.662,5.376-2.925,2.995l-2.756-15.82Z" transform="translate(-1592.72 -1064.32)" fill="#e59375"/>
        </g>
      </g>
      <path id="Path_4107" data-name="Path 4107" d="M1633.511,656.49s-15.133,3.5-15.943,21.048l-2.447,63.135s15.108,10.032,34.692,8.329C1649.812,749,1672.4,664.684,1633.511,656.49Z" transform="translate(-1605.906 -565.781)" fill="#00bac5"/>
      <path id="Path_4108" data-name="Path 4108" d="M1678.282,489.079c-1.941-1.723-5.722-6.972-5.532-9.666.053-.806.852-1.444.852-2.456,0-1.045-.457-1.448-.831-2.3a9.87,9.87,0,0,1-.954-4.854c0-1.473-.28-4.364.728-5.532,1.493-1.74,4.467-.313,6.03.621,3.254,1.937,5.088,5.088,8.457,6.947,2.859,1.58,3.789,3.488,5.4,6.248,2.024,3.476,3.714,9.913-.613,12.537C1687.834,493.041,1681.585,492.008,1678.282,489.079Z" transform="translate(-1639.259 -452.148)" fill="#3c2415"/>
      <path id="Path_4109" data-name="Path 4109" d="M1878.41,1447.54" transform="translate(-1760.896 -1031.446)" fill="#f7a483"/>
      <path id="Path_4110" data-name="Path 4110" d="M1762.753,525.692s2.957-5.693,9.489-16.618c0,0,13.895-14.273,6.108-32.207,0,0-4.274-15-30.5-12.817C1747.85,464.05,1745.341,505.331,1762.753,525.692Z" transform="translate(-1683.966 -452.37)" fill="#f8a07d"/>
      <path id="Path_4111" data-name="Path 4111" d="M1744.678,557.4s-4.414,41.141,5,44.255l-33.556-2s5.273-12.43-.86-21.6Z" transform="translate(-1664.855 -507.45)" fill="#f7a483"/>
      <path id="Path_4112" data-name="Path 4112" d="M1717.972,592.47c.559-9.4-.625-11.308-2.7-14.413l29.414-20.657a200.015,200.015,0,0,0-.925,25.338C1735.24,590.8,1728.21,592.7,1717.972,592.47Z" transform="translate(-1664.861 -507.45)" fill="#e1876f"/>
      <path id="Path_4113" data-name="Path 4113" d="M1649.754,651.662c-7.47,5.458-8.329,18.514-5.664,26.667,3.06,9.366,4.274,21.315,7.342,34.86,4.154,18.354,6.972,32.491,11.6,50.717,3.833,15.075,64.406,2.929,64.406,2.929l21.71-74.188s3.739-19.365-13.8-25.811c0,0-18.481-9.975-32.014-14.561-11.949-4.048-16.276-4.426-28.542-3.673C1674.792,648.6,1658.355,649.2,1649.754,651.662Z" transform="translate(-1622.15 -560.953)" fill="#f7a483"/>
      <path id="Path_4114" data-name="Path 4114" d="M1691.256,528.591l-1.4-4.652s-3.529-17.2-3.529-17.2a17.4,17.4,0,0,1,.276-7.149,17.533,17.533,0,0,0,.609-7.338c-2.118-12.336,4.595-18.757,4.595-18.757,7.684-10.921,24.557-10.065,24.557-10.065,20.809,2.077,21.55,22.356,21.55,22.356,2.711,13.6-8.531,24.244-8.556,24.264-.9.847-.683,5.29-1,6.536-1.37,5.3-6.664,8.342-11.32,10.378-5.117,2.242-11.287,4.59-16.9,4.821C1698.006,531.873,1692.054,531.26,1691.256,528.591Z" transform="translate(-1647.676 -452.122)" fill="#f8a07d"/>
      <path id="Path_4115" data-name="Path 4115" d="M1710.262,469.68c-6.236-7.63-18.243-.732-25.98-5.438-3.612-2.2-3.554-6.133-8.264-6.141-10.065-.016-8.876-10.83-3.286-13.981a18.655,18.655,0,0,1,3.393.144c2.789.321,4.595,1.53,7.4.522,2.945-1.057,5.458-3.052,8.235-4.447,3.587-1.81,7.227-4.175,11.344-4.364,5.068-.23,6.68,3.472,10.431,5.9,2.521,1.633,5.6,1.436,8.346,2.427,4.113,1.485,7.766,4.023,11.513,6.228,2.62,1.538,6.191,3.6,5.825,7.153-.35,3.365-3.772,4.134-2.727,7.791,1.81,6.326.51,12.858-1.744,18.888a56.3,56.3,0,0,1-4.891,10.748,42.45,42.45,0,0,1-8.054,8.914c-1.045.913-4.36,3.3-5.7,5.265-.2-8.292,1.469-7.61-.7-11.739-.843-1.6.086-2.953.683-4.545s1.982-2.908,1.773-4.632c-1.074.346-2.094.49-2.678-.008-1.024-.86-.189-3.735-.362-4.862-.588-3.809-1.135-7.968-2.974-11.406A15.541,15.541,0,0,0,1710.262,469.68Z" transform="translate(-1637.316 -435.965)" fill="#3c2415"/>
      <g id="Group_2292" data-name="Group 2292" transform="translate(76.81 49.246)">
        <g id="Group_2288" data-name="Group 2288">
          <g id="Group_2287" data-name="Group 2287">
            <g id="Group_2286" data-name="Group 2286">
              <g id="Group_2285" data-name="Group 2285">
                <g id="Group_2284" data-name="Group 2284">
                  <path id="Path_4116" data-name="Path 4116" d="M1781.094,568.062a4.648,4.648,0,0,0,2.859,1.263c3.315.35,6.437-2.415,6.968-6.174s-1.719-7.083-5.031-7.433a5.855,5.855,0,0,0-4.327,1.378c-1.789,1.473-2.209,4.533-2.09,6.688A6.38,6.38,0,0,0,1781.094,568.062Z" transform="translate(-1779.454 -555.688)" fill="#f8a07d"/>
                </g>
              </g>
            </g>
          </g>
        </g>
        <g id="Group_2291" data-name="Group 2291" transform="translate(3.32 2.21)">
          <g id="Group_2289" data-name="Group 2289" transform="translate(1.31)">
            <path id="Path_4117" data-name="Path 4117" d="M1790.755,562.221c.436-1.954,4.2.42,3.468,1.456a6.117,6.117,0,0,1-1.793,1.37,2.932,2.932,0,0,0-1.489,2.011c-.029.115-.091.457.012.551.477.42,2.4-1.308,2.826-1.67a3.328,3.328,0,0,0,.86-3.106,2,2,0,0,0-2.02-1.748c-.9-.058-1.826-.1-1.909,1.02,0,.029.025.218.045.115Z" transform="translate(-1790.71 -561.062)" fill="#e98b6f"/>
          </g>
          <g id="Group_2290" data-name="Group 2290" transform="translate(0 3.121)">
            <path id="Path_4118" data-name="Path 4118" d="M1789.913,568.9c-.366-.469-.8-.173-1.267.086a1.914,1.914,0,0,0-.86,1.078,4.688,4.688,0,0,0,.1,3.361,2.508,2.508,0,0,0,2.011,1.4c1.209.107,1.695-.913,1.863-1.925.045-.271.148-.917-.1-1.115-.267-.214-.526.206-.74.374a1.728,1.728,0,0,1-1.065.263,2.2,2.2,0,0,1-1.7-1.016,1.132,1.132,0,0,1-.144-.333c-.078.666-.062.819.053.461a1.758,1.758,0,0,1,.284-.44c.333-.428.843-.687,1.209-1.09.169-.185.539-.868.354-1.106Z" transform="translate(-1787.526 -568.649)" fill="#e98b6f"/>
          </g>
        </g>
      </g>
      <path id="Path_4119" data-name="Path 4119" d="M1709.964,554.025l5.672,2.192s-7.651.473-7.947-1.748c0,0,1.16-4.34,2.415-8.449C1710.1,546.02,1709.121,553.7,1709.964,554.025Z" transform="translate(-1660.399 -500.751)" fill="#e98b6f"/>
      <g id="Group_2293" data-name="Group 2293" transform="translate(39.136 36.695)">
        <path id="Path_4120" data-name="Path 4120" d="M1737.29,542.918c0,1.2.662,2.168,1.472,2.168s1.473-.967,1.473-2.168-.658-2.168-1.473-2.168S1737.29,541.721,1737.29,542.918Z" transform="translate(-1716.959 -534.343)" fill="#3c2415"/>
        <path id="Path_4121" data-name="Path 4121" d="M1697.51,538.5c0,1.2.662,2.168,1.472,2.168s1.473-.967,1.473-2.168-.658-2.168-1.473-2.168S1697.51,537.3,1697.51,538.5Z" transform="translate(-1693.542 -531.741)" fill="#3c2415"/>
        <path id="Path_4122" data-name="Path 4122" d="M1732.525,532.118c-.531.111-.658-.6-.658-.6a2.517,2.517,0,0,1,.033-1.271,1.221,1.221,0,0,1,.629-.642,17.915,17.915,0,0,1,6.265.819c1.242.37,3.262,1.3,3.393,2.443.037.341.07.934-.317,1.036A51.132,51.132,0,0,0,1732.525,532.118Z" transform="translate(-1713.728 -527.752)" fill="#3c2415"/>
        <path id="Path_4123" data-name="Path 4123" d="M1688.056,527.678a44.311,44.311,0,0,1,7.313.765c.481.251.8-.4.8-.4a2.463,2.463,0,0,0,.313-1.234,1.223,1.223,0,0,0-.432-.786,13.32,13.32,0,0,0-5.421-.847,10.393,10.393,0,0,0-2.723.37A5.261,5.261,0,0,0,1688.056,527.678Z" transform="translate(-1687.864 -525.174)" fill="#3c2415"/>
      </g>
      <g id="Group_2294" data-name="Group 2294" transform="translate(45.807 60.2)">
        <path id="Path_4124" data-name="Path 4124" d="M1704.677,582.32c-.465,0-.716.214-.539.547,0,0,2.04,3.834,5.615,4.266s6.491-2.8,6.491-2.8c.284-.313.037-.629-.543-.7C1715.7,583.624,1709.531,582.838,1704.677,582.32Z" transform="translate(-1704.082 -582.32)" fill="#fff"/>
      </g>
      <path id="Path_4125" data-name="Path 4125" d="M1800.642,1024.128s12.891,20.805,0,44.12-52.247,14.82-52.363-15.384C1748.16,1023.026,1775.316,1011.615,1800.642,1024.128Z" transform="translate(-1684.292 -779.247)" fill="#152035"/>
      <path id="Path_4126" data-name="Path 4126" d="M1674.792,649.05s-16.437.6-25.038,3.06c-7.47,5.458-8.329,18.514-5.664,26.667,3.06,9.366,4.274,21.315,7.342,34.86,4.154,18.354,3.788,32.635,8.42,50.861,3.834,15.075,74.8,1.67,74.8,1.67l14.5-73.077s3.739-19.365-13.8-25.811c0,0-17.646-9.687-31.175-14.269,0,0,2.114,14.269-21.151,10.329C1683.023,663.34,1668.811,659.913,1674.792,649.05Z" transform="translate(-1622.15 -561.401)" fill="#3dc0c6"/>
      <path id="Path_4127" data-name="Path 4127" d="M1745.857,918.326c3.4,12.106,10.411,50.392,10.411,50.392-9.214,38.213-93.985,10.719-94.487,5.236-.6-6.561,6.775-35.333,8.1-62.362C1669.884,911.592,1696.447,898.919,1745.857,918.326Z" transform="translate(-1633.353 -713.558)" fill="#3dc0c6"/>
      <path id="Path_4128" data-name="Path 4128" d="M1820.77,730.542c8.288,9.4,37.843,52.539,46.567,59.47,2.32,1.843,22.154,10.222,21.928-5.121-24.47-54.423-42.392-79.2-42.392-79.2s-19.505-8.934-28.871,6.775C1818,712.468,1814.962,724.043,1820.77,730.542Z" transform="translate(-1724.868 -593.254)" fill="#f7a483"/>
      <path id="Path_4129" data-name="Path 4129" d="M1809.91,712.406a19.829,19.829,0,1,0,22.849-16.256A19.828,19.828,0,0,0,1809.91,712.406Z" transform="translate(-1720.408 -588.963)" fill="#f7a483"/>
      <path id="Path_4130" data-name="Path 4130" d="M1822.878,685.15s16.47,6.4,23.989,18.691L1866.5,734.21s-8.042,22.956-28.036,27.707l-31.413-38.176S1789.281,701.377,1822.878,685.15Z" transform="translate(-1716.125 -582.652)" fill="#3dc0c6"/>
      <g id="Group_2295" data-name="Group 2295" transform="translate(100.513 188.204)">
        <path id="Path_4131" data-name="Path 4131" d="M1908.213,898.365s-9.856,28.826-18.913,71.728c0,0,1.633,7.573,6.832,4.233s36.551-67.533,35.576-73.39C1929.2,885.893,1908.213,898.365,1908.213,898.365Z" transform="translate(-1867.82 -893.512)" fill="#f7a483"/>
        <path id="Path_4132" data-name="Path 4132" d="M1858.56,1079.68l-9.07,4.7-12.048,2.851c2.02,4.574,6.9,3.151,6.9,3.151a119.96,119.96,0,0,0-6.659,12.2c-1.748,2.427.876,3.036.876,3.036,3.784-2.024,10.18-9.51,10.18-9.51a136.862,136.862,0,0,1-9.107,11.813c-1.073,2.25,1.5,2.332,1.5,2.332,5.771-1.333,10.707-11.312,10.707-11.312-1.748,3.825-7.474,11-7.474,11,.049,1.8,1.012,1.493,1.012,1.493,4.739-.358,9.461-9.967,9.461-9.967l-1.863,3.554c-2.986,4.64.576,4.327.576,4.327l1.942-2.184a32.15,32.15,0,0,0,7.025-14.1l2.875-9.144Z" transform="translate(-1837.08 -1003.103)" fill="#f7a483"/>
      </g>
      <path id="Path_4133" data-name="Path 4133" d="M1836.954,1122.45s-9.975.345-16.856-13.29H1799.79l9.531,54.74h24.762Z" transform="translate(-1714.615 -832.253)" fill="#152035"/>
    </g>
  </g>
  <g id="Group_2322" data-name="Group 2322" transform="translate(431.648 196.18)">
    <path id="Path_4134" data-name="Path 4134" d="M1239.88,518.754c-1.773,12.891-6.3,16.256-2.258,29.7,3.735,12.422,14.01,21.533,15.38,34.926.975,9.51-1.485,24.993-7.795,32.656-9.156,11.118-30.019,4.866-41.919,2.941-13.541-2.192-43.745-3.138-52.091-16.494-6.335-10.131,1.7-28.119,4.294-38.468,3.291-13.142,6.734-26.251,9.773-39.455,2.76-12,6.244-32.063,15.717-40.969s20.147-6.4,32.076-5.055C1227.351,480.151,1242.093,502.655,1239.88,518.754Z" transform="translate(-1107.921 -477.069)" fill="#3f1901"/>
    <g id="Group_2321" data-name="Group 2321">
      <g id="Group_2300" data-name="Group 2300" transform="translate(65.419 506.142)">
        <path id="Path_4135" data-name="Path 4135" d="M1280.422,1760.86l-1.518-.284-1.514-12.71,3.978-4.706Z" transform="translate(-1249.025 -1728.463)" fill="#561136"/>
        <g id="Group_2299" data-name="Group 2299">
          <path id="Path_4136" data-name="Path 4136" d="M1286.582,1754.331l-1.822,1.036.284-20.809,3.213-.728Z" transform="translate(-1253.363 -1722.971)" fill="#152035"/>
          <g id="Group_2298" data-name="Group 2298">
            <path id="Path_4137" data-name="Path 4137" d="M1235.731,1712.6l-3.377,11.155s-4.6,10.744-8.387,14.985c0,0-6.84,9.383,5.96,8.753,0,0,13.652-.728,13.446-9.485-.181-7.536,6.742-16.881,6.742-16.881a7.615,7.615,0,0,0-.893-8.992l-2.369-2.707-11.484-2Z" transform="translate(-1216.502 -1707.43)" fill="#e59375"/>
            <path id="Path_4138" data-name="Path 4138" d="M1223.218,1745.065a17.2,17.2,0,0,0,14.87-4.5c3.55-3.5,7.6-16.293,6.256-12.044-.559,1.756,3.616-13.8,2.5-16.231l2.369,2.707c.864,1.008,3.673,4.821,1.127,9.23,0,0-7.161,9.111-6.98,16.647.206,8.757-13.447,9.485-13.447,9.485-7.684.374-8.288-2.855-7.548-5.5A7.949,7.949,0,0,0,1223.218,1745.065Z" transform="translate(-1216.497 -1710.291)" fill="#152035"/>
            <path id="Path_4139" data-name="Path 4139" d="M1208.719,1778.765s-1.925,3.644,4.188,3.644c0,0,22.911-1.456,22.9-11.3l.008-7.93s-1.8,11.316-15.947,11.344c0,0-6.285,0-3.04-4.006Z" transform="translate(-1208.431 -1740.248)" fill="#152035"/>
          </g>
        </g>
      </g>
      <g id="Group_2320" data-name="Group 2320">
        <path id="Path_4140" data-name="Path 4140" d="M1274.668,618.843h-30.027c1.366-4.372,4.2-15.688-.181-23.392L1274.8,575.53S1269.4,608.959,1274.668,618.843Z" transform="translate(-1164.221 -534.976)" fill="#f7a483"/>
        <path id="Path_4141" data-name="Path 4141" d="M1271.309,599.985c-1.8,4.595-4.71,6.836-9.452,8.338a31.731,31.731,0,0,1-15.248,1.131c.477-4.611.222-9.827-2.139-13.994l30.336-19.921s-1.641,10.2-2.229,20.99C1272.161,597.678,1271.762,598.834,1271.309,599.985Z" transform="translate(-1164.227 -534.982)" fill="#e1876f"/>
        <path id="Path_4142" data-name="Path 4142" d="M1221.838,547.343l-1.592-4.516-3.891-13.286a13.378,13.378,0,0,1-.066-7.054,21.352,21.352,0,0,0,.617-11.028c-2.476-12.089,2.9-18.4,2.9-18.4,7.054-11.118,23.709-11.065,23.709-11.065C1264.1,483.059,1265.785,503,1265.785,503c3.307,13.266-7.268,24.277-7.285,24.3-1.341,1.394-1.485,3.653-2.131,5.376a16.534,16.534,0,0,1-3.019,5.039,37.106,37.106,0,0,1-10.559,8.478,40.754,40.754,0,0,1-15.873,3.743C1224.812,549.909,1222.747,549.934,1221.838,547.343Z" transform="translate(-1147.374 -479.912)" fill="#f7a483"/>
        <g id="Group_2303" data-name="Group 2303" transform="translate(143.051 511.806)">
          <path id="Path_4143" data-name="Path 4143" d="M1454.008,1765.96l-1.526.218-5.512-11.554,2.254-5.734Z" transform="translate(-1426.484 -1737.5)" fill="#561136"/>
          <g id="Group_2302" data-name="Group 2302">
            <path id="Path_4144" data-name="Path 4144" d="M1456.3,1758.018l-1.394,1.567-6.409-19.8,2.813-1.723Z" transform="translate(-1427.384 -1731.125)" fill="#152035"/>
            <g id="Group_2301" data-name="Group 2301">
              <path id="Path_4145" data-name="Path 4145" d="M1410.209,1727.777c.3,9.3.991,19.736-2.76,28.534,0,0-3.468,11.081,8.453,6.38,0,0,12.7-5.072,9.7-13.3-2.583-7.079.971-18.156.971-18.156a7.62,7.62,0,0,0-3.731-8.231l-3.114-1.806h-11.937Z" transform="translate(-1402.943 -1721.2)" fill="#f7a483"/>
              <path id="Path_4146" data-name="Path 4146" d="M1407.89,1759.84a17.194,17.194,0,0,0,12.64-9.033c2.242-4.451,1.974-17.868,2.065-13.414.037,1.843-1-14.232-2.834-16.174l3.114,1.806c1.139.674,5.026,3.385,4.027,8.379,0,0-3.854,10.925-1.267,18,3.007,8.227-9.695,13.3-9.695,13.3-7.157,2.822-8.766-.041-8.909-2.785C1407.305,1759.91,1407.594,1759.881,1407.89,1759.84Z" transform="translate(-1402.972 -1721.212)" fill="#152035"/>
              <path id="Path_4147" data-name="Path 4147" d="M1397.188,1795.174s-.658,4.068,5.138,2.106c0,0,21.233-8.729,18.066-18.049l-2.534-7.511s1.925,11.3-11.468,15.861c0,0-5.952,2.016-4.158-2.822Z" transform="translate(-1397.165 -1750.939)" fill="#152035"/>
            </g>
          </g>
        </g>
        <path id="Path_4148" data-name="Path 4148" d="M1342.1,1382.629c15.227,28.119,17.922,39.562,20.628,60.939,1.58,12.435,1.057,64.814,2.686,72.629.679,3.237-11.628,1.46-11.628,1.46-2.25-5.479-38.1-125.827-38.1-125.827s-4.006-12.463-.683-14.631C1331.719,1366.307,1335.462,1370.371,1342.1,1382.629Z" transform="translate(-1204.971 -1003.169)" fill="#f7a483"/>
        <path id="Path_4149" data-name="Path 4149" d="M1201.893,894.93s-11.7,49.524-10.131,54.938c4.525,15.581,48.64,51.906,86.919,20.015,0,0-7.881-55.542-29.052-82.073C1249.629,887.81,1242.953,894.708,1201.893,894.93Z" transform="translate(-1133.115 -718.805)" fill="#f7a483"/>
        <path id="Path_4150" data-name="Path 4150" d="M1199.41,659.514s-15.314,29.608-22.15,45.851c2.863,19.041,13.208,47.287,17.371,53.243,9.111,13.052,50.767,1.4,50.767,1.4l12.007-40.084c-35.05-12.587-16.593-49.516-16.593-49.516l-5.491-3.468s-5.606,18.152-28.419,17.506c0,0-7.495-4.878-1.979-25.585A31.6,31.6,0,0,0,1199.41,659.514Z" transform="translate(-1124.663 -584.029)" fill="#6652a2"/>
        <path id="Path_4151" data-name="Path 4151" d="M1240.364,1031.423s-4.031,79.9-18.814,122.873c-2.2,6.409-27.46-2.106-27.46-2.106s-12.747-68.746-11.986-97.227c.436-16.1,6.195-50.812,6.195-50.812S1235.671,997.953,1240.364,1031.423Z" transform="translate(-1127.495 -787.025)" fill="#e59375"/>
        <path id="Path_4152" data-name="Path 4152" d="M1238.027,1366.512l-26.737-1.822s16.429,136.4,17.918,142.128c0,0,11.5,4.159,11.258.856-.559-7.964,9.033-69.174,9.325-81.707C1250.26,1405.835,1249.474,1393.121,1238.027,1366.512Z" transform="translate(-1144.695 -999.529)" fill="#e59375"/>
        <g id="Group_2304" data-name="Group 2304" transform="translate(5.63 76.125)">
          <path id="Path_4153" data-name="Path 4153" d="M1192.058,676.163a17.612,17.612,0,0,1-14.236,20.439c-9.572,1.711-32.684,2.637-28.9-6.326,7.289-17.288,15.269-26.259,24.84-27.975S1190.343,666.587,1192.058,676.163Z" transform="translate(-1113.365 -662.008)" fill="#e59375"/>
          <path id="Path_4154" data-name="Path 4154" d="M1155.3,707.244l-8.046-15.836-18.243-.337s-23.536,43.322-27.954,56.2c-4.706,13.722,6.367,8.568,11.024,7.017C1112.081,754.292,1150.635,717.58,1155.3,707.244Z" transform="translate(-1084.764 -679.116)" fill="#e59375"/>
          <path id="Path_4155" data-name="Path 4155" d="M1090.4,834.351s-15.051,19.016-25.075,23.573c0,0-10.324-7.034,13.331-28.164C1078.652,829.76,1087.319,821.316,1090.4,834.351Z" transform="translate(-1063.078 -759.175)" fill="#e59375"/>
        </g>
        <path id="Path_4156" data-name="Path 4156" d="M1319.471,1058.694s-.308,79.934-10.851,124.136c-1.571,6.589-25.651,4.57-25.651,4.57s-15.713-75.59-17.716-104.014c-1.131-16.067-4.344-44.177-4.344-44.177S1317.279,1033.619,1319.471,1058.694Z" transform="translate(-1173.905 -807.616)" fill="#f7a483"/>
        <path id="Path_4157" data-name="Path 4157" d="M1261.556,679.414c12.286,8.984,6.005,22.492,6.005,22.492l-23.2,56.357s-37.633,12.8-46.744-.255c-4.159-5.956-8.009-21.755-13.064-44.543-3.431-15.487-3.665-42.536,5.051-50.549,5.031-4.619,21.3-4.525,21.418-5.076l26.358,8.49Z" transform="translate(-1127.651 -583.429)" fill="#f7a483"/>
        <path id="Path_4158" data-name="Path 4158" d="M1220.62,885.852c-2.229-.4-14.257,4.348-14.257,4.348s-8.667,36.93-9.16,42.544,38.126,34.684,81.267,18.132c0,0-21.784-51.38-24.968-62.124C1249.846,876.416,1220.62,885.852,1220.62,885.852Z" transform="translate(-1136.4 -715.621)" fill="#f7a483"/>
        <path id="Path_4159" data-name="Path 4159" d="M1183.414,715.99s-12.731,15-13.8,26.132c-.6,6.2,7.235,16.589,11.151,20.414C1183.546,765.247,1199.991,726.339,1183.414,715.99Z" transform="translate(-1120.143 -617.66)" fill="#122b67"/>
        <path id="Path_4160" data-name="Path 4160" d="M1256.114,532.012c.1-9.4-.132-8.827-.132-8.827-.222-2.748-5.611,3.175-5.5-.4.51-16.383-5.442-24.182-7.77-25.441-6.322-3.418-12.99-4.405-18.276-3.468-8.284,1.473-7.972,12.5-7.972,12.5-7.059-40.381,37.974-27.473,37.974-27.473,21.932,5.759,19.67,26.428,19.67,26.428,2.69,22.191-18.337,35.013-18.337,35.013Z" transform="translate(-1147.3 -476.938)" fill="#3f1901"/>
        <g id="Group_2313" data-name="Group 2313" transform="translate(105.161 39.599)">
          <g id="Group_2309" data-name="Group 2309">
            <g id="Group_2308" data-name="Group 2308">
              <g id="Group_2307" data-name="Group 2307">
                <g id="Group_2306" data-name="Group 2306">
                  <g id="Group_2305" data-name="Group 2305">
                    <path id="Path_4161" data-name="Path 4161" d="M1307.262,585.483a4.39,4.39,0,0,0,2.859.868c3.188-.045,5.837-3.031,5.911-6.659s-2.439-6.528-5.631-6.483a5.6,5.6,0,0,0-3.949,1.8c-1.534,1.6-1.58,4.558-1.213,6.594A6.084,6.084,0,0,0,1307.262,585.483Z" transform="translate(-1305.049 -573.209)" fill="#f8a07d"/>
                  </g>
                </g>
              </g>
            </g>
          </g>
          <g id="Group_2312" data-name="Group 2312" transform="translate(3.313 2.08)">
            <g id="Group_2310" data-name="Group 2310" transform="translate(0.704)">
              <path id="Path_4162" data-name="Path 4162" d="M1314.858,579.563c.189-1.909,4.043-.086,3.463.987a5.9,5.9,0,0,1-1.547,1.5,2.784,2.784,0,0,0-1.185,2.085c-.012.107-.037.44.078.514.5.346,2.135-1.514,2.493-1.909a3.191,3.191,0,0,0,.465-3.044,1.91,1.91,0,0,0-2.114-1.427c-.868.049-1.748.111-1.695,1.185,0,.025.037.206.041.107Z" transform="translate(-1314.814 -578.265)" fill="#e98b6f"/>
            </g>
            <g id="Group_2311" data-name="Group 2311" transform="translate(0 3.092)">
              <path id="Path_4163" data-name="Path 4163" d="M1315.089,585.967c-.4-.4-.786-.066-1.2.226a1.812,1.812,0,0,0-.687,1.123,4.492,4.492,0,0,0,.477,3.184,2.406,2.406,0,0,0,2.069,1.1c1.16-.033,1.505-1.057,1.551-2.04.012-.259.033-.88-.222-1.045-.28-.177-.473.255-.662.44a1.65,1.65,0,0,1-.987.37,2.113,2.113,0,0,1-1.723-.769.962.962,0,0,1-.177-.3c0,.642.037.782.1.432a1.645,1.645,0,0,1,.218-.452c.271-.444.72-.749,1.02-1.172.148-.2.42-.888.218-1.094Z" transform="translate(-1313.104 -585.784)" fill="#e98b6f"/>
            </g>
          </g>
        </g>
        <g id="Group_2315" data-name="Group 2315" transform="translate(69.166 28.729)">
          <path id="Path_4164" data-name="Path 4164" d="M1266,566.183c-.111,1.139.428,2.127,1.2,2.2s1.489-.79,1.6-1.929-.428-2.127-1.2-2.2S1266.11,565.043,1266,566.183Z" transform="translate(-1246.058 -557.064)" fill="#3c2415"/>
          <path id="Path_4165" data-name="Path 4165" d="M1227.507,560.869c-.045,1.148.551,2.1,1.333,2.127s1.44-.876,1.481-2.024-.555-2.094-1.333-2.122S1227.548,559.725,1227.507,560.869Z" transform="translate(-1223.406 -553.884)" fill="#3c2415"/>
          <path id="Path_4166" data-name="Path 4166" d="M1267.809,557.36c-2.974-3.126-9.979-2.879-9.979-2.879s-.469-.025-.341-1.452c0,0,.037-1.263,1.045-1.139C1258.533,551.894,1267.443,551.3,1267.809,557.36Z" transform="translate(-1241.043 -549.78)" fill="#3f1901"/>
          <path id="Path_4167" data-name="Path 4167" d="M1217.54,547.488c3.657-1.769,8.905.337,8.905.337,1,.148.712,1.374.712,1.374-.255,1.411-.712,1.308-.712,1.308s-4.965-2.489-8.667-1.629C1217.6,547.924,1217.659,548.006,1217.54,547.488Z" transform="translate(-1217.54 -546.781)" fill="#3f1901"/>
          <g id="Group_2314" data-name="Group 2314" transform="translate(5.459 23.585)">
            <path id="Path_4168" data-name="Path 4168" d="M1231.457,604.124l11.279,2.086c.592.111.827.465.51.777,0,0-3.245,3.245-6.9,2.563s-5.487-4.882-5.487-4.882C1230.7,604.3,1230.972,604.087,1231.457,604.124Z" transform="translate(-1230.813 -604.12)" fill="#fff"/>
          </g>
          <path id="Path_4169" data-name="Path 4169" d="M1243.146,583.736c-5.911-.428-6.236-1.979-6.236-1.979l3.1-6.228S1239.3,581.762,1243.146,583.736Z" transform="translate(-1228.942 -563.704)" fill="#e98b6f"/>
        </g>
        <g id="Group_2318" data-name="Group 2318" transform="translate(0 138.26)">
          <g id="Group_2317" data-name="Group 2317">
            <path id="Path_4170" data-name="Path 4170" d="M1049.39,817.588l14.257,57.558c0,1.065.716,1.259.716,1.259l25.219,10.514a.88.88,0,0,0,1.144-1l-14.257-57.249c0-1.205-.79-1.382-.79-1.382l-25.108-10.468S1049.39,816.321,1049.39,817.588Z" transform="translate(-1049.39 -815.217)" fill="#25386f"/>
            <g id="Group_2316" data-name="Group 2316" transform="translate(0.031)">
              <path id="Path_4171" data-name="Path 4171" d="M1131.431,900.508l-2.451,1.641c.457-.148.485-.934.485-.934L1115.22,843.8l2.139-1.452,14.257,57.71A.5.5,0,0,1,1131.431,900.508Z" transform="translate(-1088.173 -830.304)" fill="#365195"/>
              <path id="Path_4172" data-name="Path 4172" d="M1113.86,840.637s.568.292.559,1.32l2.139-1.44a1.579,1.579,0,0,0-.592-1.308Z" transform="translate(-1087.373 -828.456)" fill="#365195"/>
              <path id="Path_4173" data-name="Path 4173" d="M1078.072,823.832a.763.763,0,0,0-.177-.115l-25.108-10.485a1.41,1.41,0,0,0-1.444.074l-1.526,1.024a.821.821,0,0,0-.35.794s.115-.8,1.135-.461l25.355,10.588Z" transform="translate(-1049.466 -813.066)" fill="#a4def6"/>
            </g>
            <path id="Path_4174" data-name="Path 4174" d="M1049.39,817.588l14.257,57.558c0,1.065.716,1.259.716,1.259l25.219,10.514a.88.88,0,0,0,1.144-1l-14.257-57.249c0-1.205-.79-1.382-.79-1.382l-25.108-10.468S1049.39,816.321,1049.39,817.588Z" transform="translate(-1049.39 -815.217)" fill="none" stroke="#365195" stroke-miterlimit="10" stroke-width="0.901"/>
          </g>
          <path id="Path_4175" data-name="Path 4175" d="M1056.138,870.88a20.022,20.022,0,0,0,4.961,6.446c2.472,1.954,6.6,1.362,8.19,2.789,2.772,2.484.806,9.2-5.039,15.935-5.068,5.845-8.807-1.8-10.514-6.507-2.522-6.951-2.353-10.053.522-15.664Z" transform="translate(-1050.906 -847.099)" fill="#e59375"/>
        </g>
        <path id="Path_4176" data-name="Path 4176" d="M1310.05,601.874A1.954,1.954,0,1,0,1312,599.92,1.956,1.956,0,0,0,1310.05,601.874Z" transform="translate(-1202.832 -549.333)" fill="#fff"/>
        <path id="Path_4177" data-name="Path 4177" d="M1182.1,986.745a370.006,370.006,0,0,1,3.361-36.872c.531-9.029,10.806-54.938,10.806-54.938,41.059-.222,50.327-7.116,50.327-7.116,10.958,18.687,18.514,39.862,22.915,61.046a143.033,143.033,0,0,1,3.315,34.683c-.5,15.9-1.111,31.776-2.246,47.645-.2,2.789-1.7,31.344-3.011,31.467,0,0-68.869,7.166-80.831-23.985C1184.07,1019.771,1181.771,999.328,1182.1,986.745Z" transform="translate(-1127.495 -718.811)" fill="#cc4e7e"/>
        <path id="Path_4178" data-name="Path 4178" d="M1245.387,759.995s-42.84,13.2-51.951.148c-4.158-5.956-13.319-35.749-16.186-54.79,6.84-16.243,22.15-45.851,22.15-45.851a32.443,32.443,0,0,1,5.508-.662c-5.516,20.706,1.979,25.585,1.979,25.585,22.812.646,28.419-17.506,28.419-17.506l5.491,3.468s-16.992,35.3,15.8,51.437C1256.6,721.831,1257.394,759.7,1245.387,759.995Z" transform="translate(-1124.657 -584.018)" fill="#122b67"/>
        <g id="Group_2319" data-name="Group 2319" transform="translate(113.806 96.167)">
          <path id="Path_4179" data-name="Path 4179" d="M1326.236,725.473a17.606,17.606,0,0,0,15.014,19.871c9.633,1.341,35.148-1.16,29.694-9.214-10.715-15.836-17.325-23.874-26.959-25.219S1327.577,715.84,1326.236,725.473Z" transform="translate(-1326.066 -710.732)" fill="#f7a483"/>
          <path id="Path_4180" data-name="Path 4180" d="M1347.61,755.171l7.429-16.137,18.214-1.045s40.726,41.828,45.637,54.53c5.232,13.533-6.034,8.807-10.748,7.437C1408.146,799.957,1352.669,765.319,1347.61,755.171Z" transform="translate(-1338.748 -726.778)" fill="#f7a483"/>
          <path id="Path_4181" data-name="Path 4181" d="M1457.6,869.358s-19.036,29.53-38.715,47.743c0,0-8.786-.555-6.182-5.43,4.418-8.276,22.442-46.945,26.922-55.258C1442.135,851.744,1457.6,869.358,1457.6,869.358Z" transform="translate(-1376.78 -796.026)" fill="#f7a483"/>
          <path id="Path_4182" data-name="Path 4182" d="M1375.909,987.985l-9.946,3.213-4.595-5.557a26.591,26.591,0,0,1-1.617,10.744,122.149,122.149,0,0,0-8.778,11.188c-2.172,2.151.37,3.208.37,3.208,4.158-1.4,11.879-7.881,11.879-7.881a140.68,140.68,0,0,1-11.184,10.39c-1.464,2.09,1.119,2.6,1.119,2.6,6.047-.37,12.714-9.609,12.714-9.609-2.411,3.566-9.4,9.839-9.4,9.839-.255,1.822.769,1.678.769,1.678,4.837.44,11.229-8.465,11.229-8.465l-2.48,3.274c-3.8,4.179-.148,4.467-.148,4.467l2.328-1.876a32.888,32.888,0,0,0,9.469-13.052l4.447-8.741Z" transform="translate(-1340.211 -872.561)" fill="#f7a483"/>
        </g>
      </g>
    </g>
    <path id="Path_4183" data-name="Path 4183" d="M1243.66,494.815c13.611,7.457,21.286,14.314,17.753,30.87-3.184,14.931-4.265,23.1,3.961,36.423,7.725,12.509,8.42,19.649,1.765,33.055-5.343,10.765-10.6,21.1,2.8,27.568,25.268,12.208,48.763-7.832,39.291-35.194-4.249-12.266-14.565-20.624-19.477-32.413-4.977-11.945-.181-22.121.88-34.194,1.773-20.192-25.795-49.516-43.165-29.949a35.351,35.351,0,0,0-3.8,5.606v-1.773Z" transform="translate(-1163.75 -481.408)" fill="#3f1901"/>
  </g>
</svg>
