<svg xmlns="http://www.w3.org/2000/svg" xmlns:xlink="http://www.w3.org/1999/xlink" width="300" height="300" viewBox="0 0 300 300">
  <defs>
    <clipPath id="clip-xamarin">
      <rect width="300" height="300"/>
    </clipPath>
  </defs>
  <g id="xamarin" clip-path="url(#clip-xamarin)">
    <g id="Page-1" transform="translate(117.844 -207.267)">
      <g id="xamarin-logo" transform="translate(-92 247)">
        <path id="Logo" d="M113.648,56A19.692,19.692,0,0,0,97,65.654L44.493,157.112a19.944,19.944,0,0,0,0,19.309L97,267.878a19.688,19.688,0,0,0,16.647,9.655H218.664a19.692,19.692,0,0,0,16.647-9.655l52.508-91.457a19.946,19.946,0,0,0,0-19.309L235.311,65.654A19.689,19.689,0,0,0,218.664,56Zm.953,53.5a2.294,2.294,0,0,1,.44,0h18.114a2.388,2.388,0,0,1,1.98,1.179l30.728,54.905a2.349,2.349,0,0,1,.292.884,2.357,2.357,0,0,1,.292-.884L197.1,110.683a2.4,2.4,0,0,1,2.055-1.179h18.112a2.484,2.484,0,0,1,2.055,3.464l-29.995,53.8,29.995,53.725a2.486,2.486,0,0,1-2.055,3.537H199.155a2.4,2.4,0,0,1-2.055-1.254l-30.653-54.9a2.372,2.372,0,0,1-.292-.884,2.363,2.363,0,0,1-.292.884l-30.728,54.9a2.4,2.4,0,0,1-1.98,1.254H115.041a2.486,2.486,0,0,1-2.053-3.537l29.994-53.725-29.994-53.8A2.477,2.477,0,0,1,114.6,109.5Z" transform="translate(-42 -56)" fill="#3498db" fill-rule="evenodd"/>
      </g>
    </g>
  </g>
</svg>
